<svg width="97" height="50" viewBox="0 0 97 50" fill="none" xmlns="http://www.w3.org/2000/svg">
<rect width="96.8354" height="50" fill="white" fill-opacity="0.5"/>
<circle cx="48.4177" cy="25" r="25" fill="#C4C4C4"/>
<path d="M0.707383 20.0127C0.707383 19.4093 0.814134 18.8152 1.02764 18.2304C1.25042 17.6363 1.57067 17.1072 1.9884 16.643C2.40612 16.1789 2.91667 15.803 3.52004 15.5152C4.12342 15.2274 4.81034 15.0835 5.5808 15.0835C6.49051 15.0835 7.27489 15.2831 7.93397 15.6823C8.60232 16.0814 9.09894 16.6013 9.42384 17.2418L7.94789 18.2582C7.81793 17.9797 7.66013 17.7477 7.47447 17.562C7.28882 17.3671 7.08924 17.2139 6.87574 17.1025C6.66224 16.9911 6.43945 16.9122 6.20738 16.8658C5.97532 16.8101 5.74789 16.7823 5.5251 16.7823C5.0424 16.7823 4.62004 16.8797 4.25802 17.0747C3.90527 17.2696 3.60823 17.5249 3.36688 17.8405C3.13481 18.1468 2.95844 18.4996 2.83776 18.8987C2.71709 19.2886 2.65675 19.6785 2.65675 20.0684C2.65675 20.5046 2.72637 20.927 2.86561 21.3354C3.00485 21.7346 3.19979 22.0873 3.45042 22.3937C3.71034 22.7 4.01667 22.946 4.36941 23.1316C4.73143 23.3173 5.12595 23.4101 5.55295 23.4101C5.77574 23.4101 6.00781 23.3823 6.24916 23.3266C6.49051 23.2709 6.71793 23.1827 6.93143 23.062C7.15422 22.9413 7.35844 22.7882 7.54409 22.6025C7.72975 22.4076 7.87827 22.1755 7.98966 21.9063L9.56308 22.8114C9.40527 23.1827 9.17785 23.5122 8.8808 23.8C8.59304 24.0785 8.2635 24.3152 7.89219 24.5101C7.53017 24.7051 7.14029 24.8536 6.72257 24.9557C6.30485 25.0578 5.89641 25.1089 5.49726 25.1089C4.79177 25.1089 4.14662 24.9603 3.56181 24.6633C2.977 24.3662 2.4711 23.981 2.04409 23.5076C1.62637 23.0249 1.29683 22.4819 1.05548 21.8785C0.823417 21.2658 0.707383 20.6439 0.707383 20.0127ZM14.0403 25.1646C13.4462 25.1646 12.9125 25.0624 12.439 24.8582C11.9656 24.654 11.5618 24.3802 11.2277 24.0367C10.9028 23.684 10.6521 23.2802 10.4758 22.8253C10.2994 22.3705 10.2112 21.8924 10.2112 21.3911C10.2112 20.8806 10.2994 20.3979 10.4758 19.943C10.6521 19.4882 10.9028 19.089 11.2277 18.7456C11.5618 18.3928 11.9656 18.1143 12.439 17.9101C12.9125 17.7059 13.4462 17.6038 14.0403 17.6038C14.6344 17.6038 15.1635 17.7059 15.6277 17.9101C16.1011 18.1143 16.5002 18.3928 16.8251 18.7456C17.1593 19.089 17.4146 19.4882 17.5909 19.943C17.7673 20.3979 17.8555 20.8806 17.8555 21.3911C17.8555 21.8924 17.7673 22.3705 17.5909 22.8253C17.4146 23.2802 17.1639 23.684 16.839 24.0367C16.5142 24.3802 16.115 24.654 15.6416 24.8582C15.1682 25.0624 14.6344 25.1646 14.0403 25.1646ZM12.1327 21.3911C12.1327 21.716 12.1791 22.0131 12.272 22.2823C12.3741 22.5422 12.5087 22.7696 12.6758 22.9646C12.8521 23.1595 13.0563 23.3127 13.2884 23.424C13.5205 23.5262 13.7711 23.5772 14.0403 23.5772C14.3095 23.5772 14.5601 23.5262 14.7922 23.424C15.0243 23.3127 15.2239 23.1595 15.3909 22.9646C15.5673 22.7696 15.7019 22.5376 15.7947 22.2684C15.8969 21.9992 15.9479 21.7021 15.9479 21.3772C15.9479 21.0616 15.8969 20.7692 15.7947 20.5C15.7019 20.2308 15.5673 19.9987 15.3909 19.8038C15.2239 19.6089 15.0243 19.4603 14.7922 19.3582C14.5601 19.2468 14.3095 19.1911 14.0403 19.1911C13.7711 19.1911 13.5205 19.2468 13.2884 19.3582C13.0563 19.4696 12.8521 19.6228 12.6758 19.8177C12.5087 20.0127 12.3741 20.2447 12.272 20.5139C12.1791 20.7831 12.1327 21.0755 12.1327 21.3911ZM25.8959 25.0253H24.0301V20.9316C24.0301 20.3468 23.928 19.9198 23.7237 19.6506C23.5195 19.3814 23.2364 19.2468 22.8744 19.2468C22.6887 19.2468 22.4984 19.284 22.3035 19.3582C22.1085 19.4325 21.9229 19.5392 21.7465 19.6785C21.5794 19.8084 21.4263 19.9662 21.287 20.1519C21.1478 20.3376 21.0457 20.5418 20.9807 20.7646V25.0253H19.1149V17.7291H20.7997V19.0797C21.0689 18.6156 21.4588 18.2536 21.9693 17.9937C22.4798 17.7338 23.0554 17.6038 23.6959 17.6038C24.1507 17.6038 24.522 17.6873 24.8098 17.8544C25.0976 18.0215 25.3204 18.2397 25.4782 18.5089C25.636 18.7781 25.7427 19.0844 25.7984 19.4278C25.8634 19.7713 25.8959 20.1194 25.8959 20.4721V25.0253ZM30.8879 25.1646C30.2938 25.1646 29.76 25.0624 29.2866 24.8582C28.8132 24.654 28.4094 24.3802 28.0752 24.0367C27.7503 23.684 27.4997 23.2802 27.3233 22.8253C27.1469 22.3705 27.0588 21.8924 27.0588 21.3911C27.0588 20.8806 27.1469 20.3979 27.3233 19.943C27.4997 19.4882 27.7503 19.089 28.0752 18.7456C28.4094 18.3928 28.8132 18.1143 29.2866 17.9101C29.76 17.7059 30.2938 17.6038 30.8879 17.6038C31.482 17.6038 32.0111 17.7059 32.4752 17.9101C32.9486 18.1143 33.3478 18.3928 33.6727 18.7456C34.0069 19.089 34.2621 19.4882 34.4385 19.943C34.6149 20.3979 34.7031 20.8806 34.7031 21.3911C34.7031 21.8924 34.6149 22.3705 34.4385 22.8253C34.2621 23.2802 34.0115 23.684 33.6866 24.0367C33.3617 24.3802 32.9626 24.654 32.4891 24.8582C32.0157 25.0624 31.482 25.1646 30.8879 25.1646ZM28.9803 21.3911C28.9803 21.716 29.0267 22.0131 29.1195 22.2823C29.2216 22.5422 29.3562 22.7696 29.5233 22.9646C29.6997 23.1595 29.9039 23.3127 30.136 23.424C30.368 23.5262 30.6187 23.5772 30.8879 23.5772C31.1571 23.5772 31.4077 23.5262 31.6398 23.424C31.8718 23.3127 32.0714 23.1595 32.2385 22.9646C32.4149 22.7696 32.5495 22.5376 32.6423 22.2684C32.7444 21.9992 32.7955 21.7021 32.7955 21.3772C32.7955 21.0616 32.7444 20.7692 32.6423 20.5C32.5495 20.2308 32.4149 19.9987 32.2385 19.8038C32.0714 19.6089 31.8718 19.4603 31.6398 19.3582C31.4077 19.2468 31.1571 19.1911 30.8879 19.1911C30.6187 19.1911 30.368 19.2468 30.136 19.3582C29.9039 19.4696 29.6997 19.6228 29.5233 19.8177C29.3562 20.0127 29.2216 20.2447 29.1195 20.5139C29.0267 20.7831 28.9803 21.0755 28.9803 21.3911ZM35.5029 21.3772C35.5029 20.8667 35.5911 20.384 35.7675 19.9291C35.9439 19.4743 36.1991 19.0751 36.5333 18.7316C36.8675 18.3882 37.2713 18.1143 37.7447 17.9101C38.2181 17.7059 38.7519 17.6038 39.346 17.6038C40.1443 17.6038 40.8219 17.7755 41.3789 18.119C41.9451 18.4624 42.3675 18.9127 42.646 19.4696L40.8219 20.0266C40.6641 19.7574 40.4553 19.5532 40.1953 19.4139C39.9354 19.2654 39.6477 19.1911 39.332 19.1911C39.0628 19.1911 38.8122 19.2468 38.5801 19.3582C38.3481 19.4603 38.1439 19.6089 37.9675 19.8038C37.8004 19.9894 37.6658 20.2169 37.5637 20.4861C37.4709 20.7553 37.4245 21.0523 37.4245 21.3772C37.4245 21.7021 37.4755 21.9992 37.5776 22.2684C37.6797 22.5376 37.8143 22.7696 37.9814 22.9646C38.1578 23.1595 38.362 23.3127 38.5941 23.424C38.8261 23.5262 39.0721 23.5772 39.332 23.5772C39.6662 23.5772 39.9726 23.4937 40.251 23.3266C40.5388 23.1595 40.7384 22.9553 40.8498 22.7139L42.6738 23.2709C42.4232 23.8278 42.0101 24.2827 41.4346 24.6354C40.8591 24.9882 40.1675 25.1646 39.3599 25.1646C38.7658 25.1646 38.232 25.0624 37.7586 24.8582C37.2852 24.654 36.8814 24.3802 36.5472 24.0367C36.2131 23.684 35.9531 23.2802 35.7675 22.8253C35.5911 22.3612 35.5029 21.8785 35.5029 21.3772ZM47.1375 25.1646C46.5526 25.1646 46.0235 25.0671 45.5501 24.8721C45.0767 24.6679 44.6729 24.3941 44.3387 24.0506C44.0045 23.7072 43.7446 23.308 43.559 22.8532C43.3826 22.3983 43.2944 21.9203 43.2944 21.419C43.2944 20.8992 43.3826 20.4118 43.559 19.957C43.7353 19.4928 43.9906 19.089 44.3248 18.7456C44.659 18.3928 45.0628 18.1143 45.5362 17.9101C46.0189 17.7059 46.5573 17.6038 47.1514 17.6038C47.7455 17.6038 48.2746 17.7059 48.7387 17.9101C49.2121 18.1143 49.6113 18.3882 49.9362 18.7316C50.2704 19.0751 50.521 19.4743 50.6881 19.9291C50.8645 20.384 50.9526 20.8574 50.9526 21.3494C50.9526 21.47 50.948 21.5861 50.9387 21.6975C50.9387 21.8089 50.9294 21.9017 50.9109 21.9759H45.2716C45.2995 22.2637 45.3691 22.519 45.4805 22.7418C45.5919 22.9646 45.7358 23.1549 45.9121 23.3127C46.0885 23.4705 46.2881 23.5911 46.5109 23.6747C46.7337 23.7582 46.9657 23.8 47.2071 23.8C47.5784 23.8 47.9265 23.7118 48.2514 23.5354C48.5856 23.3498 48.813 23.1084 48.9337 22.8114L50.5349 23.257C50.2657 23.8139 49.8341 24.2734 49.24 24.6354C48.6552 24.9882 47.9543 25.1646 47.1375 25.1646ZM49.0311 20.7646C48.9847 20.2169 48.7805 19.7806 48.4185 19.4557C48.0657 19.1215 47.6341 18.9544 47.1235 18.9544C46.8729 18.9544 46.6362 19.0008 46.4134 19.0937C46.1999 19.1772 46.0096 19.2979 45.8425 19.4557C45.6754 19.6135 45.5362 19.8038 45.4248 20.0266C45.3227 20.2494 45.2624 20.4954 45.2438 20.7646H49.0311ZM63.5799 22.4772C63.5799 22.8949 63.4964 23.2616 63.3293 23.5772C63.1622 23.8928 62.9301 24.1574 62.6331 24.3709C62.3453 24.5844 62.0065 24.7468 61.6166 24.8582C61.236 24.9696 60.8276 25.0253 60.3913 25.0253H55.6154V15.1392H60.9065C61.25 15.1392 61.5609 15.2135 61.8394 15.362C62.1179 15.5105 62.3546 15.7055 62.5495 15.9468C62.7445 16.1789 62.893 16.4481 62.9951 16.7544C63.1065 17.0515 63.1622 17.3532 63.1622 17.6595C63.1622 18.1422 63.0415 18.597 62.8002 19.024C62.5588 19.4418 62.2061 19.7527 61.7419 19.957C62.3082 20.124 62.7537 20.4257 63.0786 20.862C63.4128 21.289 63.5799 21.8274 63.5799 22.4772ZM61.6445 22.1152C61.6445 21.9388 61.612 21.7717 61.547 21.6139C61.4913 21.4468 61.4124 21.303 61.3103 21.1823C61.2082 21.0616 61.0875 20.9688 60.9483 20.9038C60.809 20.8295 60.6559 20.7924 60.4888 20.7924H57.5369V23.3962H60.3913C60.5677 23.3962 60.7301 23.3637 60.8786 23.2987C61.0364 23.2338 61.171 23.1456 61.2824 23.0342C61.3938 22.9135 61.482 22.7743 61.547 22.6165C61.612 22.4586 61.6445 22.2916 61.6445 22.1152ZM57.5369 16.7823V19.2747H60.0989C60.4238 19.2747 60.6976 19.1633 60.9204 18.9405C61.1525 18.7177 61.2685 18.4114 61.2685 18.0215C61.2685 17.6409 61.1618 17.3392 60.9483 17.1165C60.744 16.8937 60.4888 16.7823 60.1824 16.7823H57.5369ZM68.268 25.1646C67.6739 25.1646 67.1401 25.0624 66.6667 24.8582C66.1933 24.654 65.7895 24.3802 65.4553 24.0367C65.1304 23.684 64.8798 23.2802 64.7034 22.8253C64.527 22.3705 64.4389 21.8924 64.4389 21.3911C64.4389 20.8806 64.527 20.3979 64.7034 19.943C64.8798 19.4882 65.1304 19.089 65.4553 18.7456C65.7895 18.3928 66.1933 18.1143 66.6667 17.9101C67.1401 17.7059 67.6739 17.6038 68.268 17.6038C68.8621 17.6038 69.3912 17.7059 69.8553 17.9101C70.3287 18.1143 70.7279 18.3928 71.0528 18.7456C71.387 19.089 71.6422 19.4882 71.8186 19.943C71.995 20.3979 72.0832 20.8806 72.0832 21.3911C72.0832 21.8924 71.995 22.3705 71.8186 22.8253C71.6422 23.2802 71.3916 23.684 71.0667 24.0367C70.7418 24.3802 70.3427 24.654 69.8692 24.8582C69.3958 25.0624 68.8621 25.1646 68.268 25.1646ZM66.3604 21.3911C66.3604 21.716 66.4068 22.0131 66.4996 22.2823C66.6017 22.5422 66.7363 22.7696 66.9034 22.9646C67.0798 23.1595 67.284 23.3127 67.5161 23.424C67.7481 23.5262 67.9988 23.5772 68.268 23.5772C68.5372 23.5772 68.7878 23.5262 69.0199 23.424C69.2519 23.3127 69.4515 23.1595 69.6186 22.9646C69.795 22.7696 69.9296 22.5376 70.0224 22.2684C70.1245 21.9992 70.1756 21.7021 70.1756 21.3772C70.1756 21.0616 70.1245 20.7692 70.0224 20.5C69.9296 20.2308 69.795 19.9987 69.6186 19.8038C69.4515 19.6089 69.2519 19.4603 69.0199 19.3582C68.7878 19.2468 68.5372 19.1911 68.268 19.1911C67.9988 19.1911 67.7481 19.2468 67.5161 19.3582C67.284 19.4696 67.0798 19.6228 66.9034 19.8177C66.7363 20.0127 66.6017 20.2447 66.4996 20.5139C66.4068 20.7831 66.3604 21.0755 66.3604 21.3911ZM72.883 21.3772C72.883 20.8667 72.9712 20.384 73.1476 19.9291C73.324 19.4743 73.5792 19.0751 73.9134 18.7316C74.2476 18.3882 74.6514 18.1143 75.1248 17.9101C75.5982 17.7059 76.132 17.6038 76.7261 17.6038C77.5244 17.6038 78.202 17.7755 78.759 18.119C79.3252 18.4624 79.7476 18.9127 80.0261 19.4696L78.202 20.0266C78.0442 19.7574 77.8353 19.5532 77.5754 19.4139C77.3155 19.2654 77.0277 19.1911 76.7121 19.1911C76.4429 19.1911 76.1923 19.2468 75.9602 19.3582C75.7282 19.4603 75.524 19.6089 75.3476 19.8038C75.1805 19.9894 75.0459 20.2169 74.9438 20.4861C74.851 20.7553 74.8045 21.0523 74.8045 21.3772C74.8045 21.7021 74.8556 21.9992 74.9577 22.2684C75.0598 22.5376 75.1944 22.7696 75.3615 22.9646C75.5379 23.1595 75.7421 23.3127 75.9742 23.424C76.2062 23.5262 76.4522 23.5772 76.7121 23.5772C77.0463 23.5772 77.3526 23.4937 77.6311 23.3266C77.9189 23.1595 78.1185 22.9553 78.2299 22.7139L80.0539 23.2709C79.8033 23.8278 79.3902 24.2827 78.8147 24.6354C78.2391 24.9882 77.5476 25.1646 76.74 25.1646C76.1459 25.1646 75.6121 25.0624 75.1387 24.8582C74.6653 24.654 74.2615 24.3802 73.9273 24.0367C73.5931 23.684 73.3332 23.2802 73.1476 22.8253C72.9712 22.3612 72.883 21.8785 72.883 21.3772ZM87.983 25.0253H86.1172V20.9316C86.1172 20.3561 86.0104 19.9338 85.7969 19.6646C85.5834 19.3861 85.2817 19.2468 84.8919 19.2468C84.7248 19.2468 84.5484 19.284 84.3628 19.3582C84.1771 19.4325 84.0007 19.5392 83.8336 19.6785C83.6666 19.8084 83.5134 19.9662 83.3741 20.1519C83.2349 20.3376 83.1328 20.5418 83.0678 20.7646V25.0253H81.202V14.8608H83.0678V19.0797C83.337 18.6063 83.699 18.2443 84.1539 17.9937C84.618 17.7338 85.1286 17.6038 85.6855 17.6038C86.159 17.6038 86.5442 17.6873 86.8412 17.8544C87.1383 18.0122 87.3704 18.2257 87.5374 18.4949C87.7045 18.7641 87.8206 19.0705 87.8855 19.4139C87.9505 19.7574 87.983 20.1101 87.983 20.4721V25.0253ZM89.6054 25.0253V17.7291H91.4712V25.0253H89.6054ZM89.6054 16.7127V14.8608H91.4712V16.7127H89.6054ZM93.1405 14.8608H95.0063V22.6861C95.0063 22.9553 95.0713 23.1641 95.2012 23.3127C95.3312 23.4612 95.5168 23.5354 95.7582 23.5354C95.8696 23.5354 95.9902 23.5169 96.1202 23.4797C96.2594 23.4426 96.3894 23.3962 96.5101 23.3405L96.7607 24.7608C96.5101 24.8814 96.2177 24.9743 95.8835 25.0392C95.5493 25.1042 95.2476 25.1367 94.9784 25.1367C94.3936 25.1367 93.9388 24.9835 93.6139 24.6772C93.2983 24.3616 93.1405 23.916 93.1405 23.3405V14.8608Z" fill="black"/>
<path d="M5.49938 28.1646V31.3228H5.18293V28.1646H5.49938ZM5.49938 26.7848V27.4304H5.18293V26.7848H5.49938ZM6.69677 31.3165V26.8228H7.01956V31.0253H9.7031V31.3165H6.69677ZM11.5232 31.3797C11.2911 31.3797 11.0759 31.3354 10.8776 31.2468C10.6835 31.154 10.5147 31.0295 10.3713 30.8734C10.2278 30.7173 10.116 30.5359 10.0358 30.3291C9.95566 30.1224 9.91557 29.9051 9.91557 29.6772C9.91557 29.4451 9.95566 29.2257 10.0358 29.019C10.1202 28.8122 10.2341 28.6308 10.3776 28.4747C10.5211 28.3186 10.6898 28.1962 10.8839 28.1076C11.0822 28.0148 11.2953 27.9684 11.5232 27.9684C11.751 27.9684 11.962 28.0148 12.1561 28.1076C12.3502 28.1962 12.5189 28.3186 12.6624 28.4747C12.8101 28.6308 12.924 28.8122 13.0042 29.019C13.0886 29.2257 13.1308 29.4451 13.1308 29.6772C13.1308 29.9051 13.0886 30.1224 13.0042 30.3291C12.924 30.5359 12.8122 30.7173 12.6687 30.8734C12.5253 31.0295 12.3544 31.154 12.1561 31.2468C11.962 31.3354 11.751 31.3797 11.5232 31.3797ZM10.232 29.6899C10.232 29.884 10.2658 30.0675 10.3333 30.2405C10.4008 30.4093 10.4915 30.557 10.6054 30.6835C10.7236 30.8101 10.8607 30.9114 11.0168 30.9873C11.173 31.0591 11.3396 31.0949 11.5168 31.0949C11.6941 31.0949 11.8607 31.0591 12.0168 30.9873C12.173 30.9114 12.3101 30.808 12.4282 30.6772C12.5464 30.5464 12.6392 30.3966 12.7067 30.2278C12.7742 30.0548 12.808 29.8692 12.808 29.6709C12.808 29.4768 12.7742 29.2954 12.7067 29.1266C12.6392 28.9536 12.5464 28.8038 12.4282 28.6772C12.3101 28.5464 12.173 28.443 12.0168 28.3671C11.8649 28.2911 11.7004 28.2532 11.5232 28.2532C11.346 28.2532 11.1793 28.2911 11.0232 28.3671C10.867 28.443 10.7299 28.5464 10.6118 28.6772C10.4979 28.808 10.405 28.962 10.3333 29.1392C10.2658 29.3122 10.232 29.4958 10.232 29.6899ZM16.3541 31.3165L14.9807 28.0253H15.3098L16.525 31L17.7465 28.0253H18.0566L16.6832 31.3165H16.3541ZM19.9727 31.3797C19.7407 31.3797 19.5255 31.3354 19.3272 31.2468C19.1289 31.154 18.9559 31.0295 18.8082 30.8734C18.6647 30.7131 18.5508 30.5295 18.4664 30.3228C18.3862 30.116 18.3461 29.8945 18.3461 29.6582C18.3461 29.4262 18.3862 29.2089 18.4664 29.0063C18.5508 28.7996 18.6647 28.6202 18.8082 28.4684C18.9516 28.3122 19.1204 28.1899 19.3145 28.1013C19.5128 28.0127 19.7259 27.9684 19.9537 27.9684C20.1858 27.9684 20.401 28.0148 20.5993 28.1076C20.7976 28.1962 20.9685 28.3186 21.112 28.4747C21.2554 28.6266 21.3672 28.8059 21.4474 29.0127C21.5276 29.2152 21.5677 29.4304 21.5677 29.6582C21.5677 29.6793 21.5677 29.7067 21.5677 29.7405C21.5677 29.77 21.5656 29.789 21.5613 29.7975H18.6753C18.6879 29.9873 18.7322 30.1646 18.8082 30.3291C18.8841 30.4894 18.9791 30.6287 19.093 30.7468C19.2111 30.865 19.3461 30.9578 19.498 31.0253C19.6499 31.0928 19.8124 31.1266 19.9854 31.1266C20.0993 31.1266 20.2111 31.1118 20.3208 31.0823C20.4305 31.0485 20.5318 31.0042 20.6246 30.9494C20.7217 30.8945 20.8061 30.8291 20.8778 30.7532C20.9537 30.673 21.0128 30.5865 21.055 30.4937L21.3335 30.5696C21.2871 30.6878 21.2175 30.7975 21.1246 30.8987C21.036 30.9958 20.9305 31.0802 20.8082 31.1519C20.69 31.2236 20.5592 31.2785 20.4158 31.3165C20.2723 31.3586 20.1246 31.3797 19.9727 31.3797ZM21.2639 29.5443C21.2512 29.3502 21.2069 29.173 21.131 29.0127C21.0592 28.8523 20.9643 28.7152 20.8461 28.6013C20.7322 28.4831 20.5993 28.3924 20.4474 28.3291C20.2955 28.2616 20.1331 28.2278 19.9601 28.2278C19.7871 28.2278 19.6246 28.2616 19.4727 28.3291C19.3208 28.3924 19.1858 28.4831 19.0677 28.6013C18.9537 28.7152 18.8609 28.8544 18.7892 29.019C18.7217 29.1793 18.6816 29.3544 18.6689 29.5443H21.2639ZM23.6437 31.3797C23.4116 31.3797 23.1964 31.3354 22.9981 31.2468C22.804 31.154 22.6352 31.0295 22.4918 30.8734C22.3483 30.7173 22.2365 30.5359 22.1563 30.3291C22.0762 30.1224 22.0361 29.9051 22.0361 29.6772C22.0361 29.4451 22.0762 29.2257 22.1563 29.019C22.2407 28.8122 22.3546 28.6308 22.4981 28.4747C22.6416 28.3186 22.8103 28.1962 23.0044 28.1076C23.2027 28.0148 23.4158 27.9684 23.6437 27.9684C23.8715 27.9684 24.0825 28.0148 24.2766 28.1076C24.4707 28.1962 24.6394 28.3186 24.7829 28.4747C24.9306 28.6308 25.0445 28.8122 25.1247 29.019C25.2091 29.2257 25.2513 29.4451 25.2513 29.6772C25.2513 29.9051 25.2091 30.1224 25.1247 30.3291C25.0445 30.5359 24.9327 30.7173 24.7892 30.8734C24.6458 31.0295 24.4749 31.154 24.2766 31.2468C24.0825 31.3354 23.8715 31.3797 23.6437 31.3797ZM22.3525 29.6899C22.3525 29.884 22.3863 30.0675 22.4538 30.2405C22.5213 30.4093 22.612 30.557 22.7259 30.6835C22.8441 30.8101 22.9812 30.9114 23.1373 30.9873C23.2935 31.0591 23.4601 31.0949 23.6373 31.0949C23.8146 31.0949 23.9812 31.0591 24.1373 30.9873C24.2935 30.9114 24.4306 30.808 24.5487 30.6772C24.6669 30.5464 24.7597 30.3966 24.8272 30.2278C24.8947 30.0548 24.9285 29.8692 24.9285 29.6709C24.9285 29.4768 24.8947 29.2954 24.8272 29.1266C24.7597 28.9536 24.6669 28.8038 24.5487 28.6772C24.4306 28.5464 24.2935 28.443 24.1373 28.3671C23.9854 28.2911 23.8209 28.2532 23.6437 28.2532C23.4665 28.2532 23.2998 28.2911 23.1437 28.3671C22.9875 28.443 22.8504 28.5464 22.7323 28.6772C22.6184 28.808 22.5255 28.962 22.4538 29.1392C22.3863 29.3122 22.3525 29.4958 22.3525 29.6899ZM26.1297 31.8291L26.2247 31.3291H26.1107V30.7785H26.4335V31.3291L26.3006 31.8291H26.1297ZM29.1684 26.6962H29.4912V30.6646C29.4912 30.7869 29.525 30.884 29.5925 30.9557C29.6642 31.0274 29.7613 31.0633 29.8836 31.0633C29.93 31.0633 29.9849 31.0591 30.0482 31.0506C30.1157 31.038 30.1769 31.0211 30.2317 31L30.295 31.2532C30.2233 31.2827 30.1347 31.3059 30.0292 31.3228C29.9237 31.3439 29.833 31.3544 29.757 31.3544C29.5798 31.3544 29.4364 31.3017 29.3267 31.1962C29.2212 31.0865 29.1684 30.9409 29.1684 30.7595V26.6962ZM32.1608 31.3797C31.9287 31.3797 31.7135 31.3354 31.5152 31.2468C31.3211 31.154 31.1523 31.0295 31.0089 30.8734C30.8654 30.7173 30.7536 30.5359 30.6734 30.3291C30.5933 30.1224 30.5532 29.9051 30.5532 29.6772C30.5532 29.4451 30.5933 29.2257 30.6734 29.019C30.7578 28.8122 30.8717 28.6308 31.0152 28.4747C31.1587 28.3186 31.3274 28.1962 31.5215 28.1076C31.7198 28.0148 31.9329 27.9684 32.1608 27.9684C32.3886 27.9684 32.5996 28.0148 32.7937 28.1076C32.9878 28.1962 33.1566 28.3186 33.3 28.4747C33.4477 28.6308 33.5616 28.8122 33.6418 29.019C33.7262 29.2257 33.7684 29.4451 33.7684 29.6772C33.7684 29.9051 33.7262 30.1224 33.6418 30.3291C33.5616 30.5359 33.4498 30.7173 33.3063 30.8734C33.1629 31.0295 32.992 31.154 32.7937 31.2468C32.5996 31.3354 32.3886 31.3797 32.1608 31.3797ZM30.8696 29.6899C30.8696 29.884 30.9034 30.0675 30.9709 30.2405C31.0384 30.4093 31.1291 30.557 31.2431 30.6835C31.3612 30.8101 31.4983 30.9114 31.6544 30.9873C31.8106 31.0591 31.9772 31.0949 32.1544 31.0949C32.3317 31.0949 32.4983 31.0591 32.6544 30.9873C32.8106 30.9114 32.9477 30.808 33.0658 30.6772C33.184 30.5464 33.2768 30.3966 33.3443 30.2278C33.4118 30.0548 33.4456 29.8692 33.4456 29.6709C33.4456 29.4768 33.4118 29.2954 33.3443 29.1266C33.2768 28.9536 33.184 28.8038 33.0658 28.6772C32.9477 28.5464 32.8106 28.443 32.6544 28.3671C32.5025 28.2911 32.338 28.2532 32.1608 28.2532C31.9836 28.2532 31.8169 28.2911 31.6608 28.3671C31.5047 28.443 31.3675 28.5464 31.2494 28.6772C31.1355 28.808 31.0426 28.962 30.9709 29.1392C30.9034 29.3122 30.8696 29.4958 30.8696 29.6899ZM37.4306 31.3797C37.2028 31.3797 36.996 31.3333 36.8104 31.2405C36.6289 31.1435 36.4707 31.0169 36.3357 30.8608C36.2049 30.7004 36.1036 30.519 36.0319 30.3165C35.9601 30.1097 35.9243 29.8966 35.9243 29.6772C35.9243 29.4494 35.9644 29.2321 36.0445 29.0253C36.1289 28.8186 36.2407 28.6371 36.38 28.481C36.5234 28.3249 36.6901 28.2004 36.88 28.1076C37.0741 28.0148 37.2808 27.9684 37.5002 27.9684C37.7576 27.9684 37.9981 28.038 38.2217 28.1772C38.4454 28.3122 38.6205 28.4831 38.7471 28.6899V28.0253H39.0382V32.2089C39.0382 32.3143 39.0825 32.3692 39.1711 32.3734V32.6519C39.15 32.6561 39.131 32.6582 39.1141 32.6582C39.0973 32.6582 39.0804 32.6582 39.0635 32.6582C38.9665 32.6582 38.8842 32.6266 38.8167 32.5633C38.7534 32.5042 38.7217 32.424 38.7217 32.3228V30.6076C38.3758 31.1224 37.9454 31.3797 37.4306 31.3797ZM37.5129 31.0949C37.6521 31.0949 37.7808 31.0717 37.899 31.0253C38.0213 30.9789 38.1331 30.9177 38.2344 30.8418C38.3357 30.7658 38.4264 30.6772 38.5066 30.5759C38.5909 30.4705 38.6627 30.3608 38.7217 30.2468V29.1709C38.7049 29.0485 38.6585 28.9325 38.5825 28.8228C38.5066 28.7131 38.4116 28.616 38.2977 28.5316C38.188 28.4473 38.0677 28.3797 37.9369 28.3291C37.8061 28.2785 37.6774 28.2532 37.5509 28.2532C37.361 28.2532 37.1859 28.2954 37.0255 28.3797C36.8652 28.4599 36.726 28.5675 36.6078 28.7025C36.4939 28.8333 36.4053 28.9852 36.342 29.1582C36.2787 29.3312 36.2471 29.5063 36.2471 29.6835C36.2471 29.8734 36.2787 30.0527 36.342 30.2215C36.4053 30.3903 36.4918 30.5401 36.6015 30.6709C36.7154 30.8017 36.8483 30.9051 37.0002 30.981C37.1563 31.057 37.3272 31.0949 37.5129 31.0949ZM41.0465 31.3797C40.346 31.3797 39.9958 30.8945 39.9958 29.924V28.0253H40.3123V29.8797C40.3123 30.6899 40.5887 31.0949 41.1414 31.0949C41.2806 31.0949 41.4157 31.0717 41.5465 31.0253C41.6773 30.9747 41.7996 30.9072 41.9135 30.8228C42.0275 30.7342 42.1266 30.6287 42.211 30.5063C42.2996 30.384 42.3692 30.2489 42.4199 30.1013V28.0253H42.7363V30.8734C42.7363 30.9789 42.7806 31.0316 42.8692 31.0316V31.3165C42.8481 31.3207 42.8292 31.3228 42.8123 31.3228C42.7954 31.3228 42.7827 31.3228 42.7743 31.3228C42.6899 31.3228 42.614 31.2975 42.5465 31.2468C42.4832 31.192 42.4515 31.1202 42.4515 31.0316V30.538C42.3081 30.8038 42.1097 31.0105 41.8566 31.1582C41.6076 31.3059 41.3376 31.3797 41.0465 31.3797ZM43.7421 31.3165V28.0253H44.0586V31.3165H43.7421ZM43.7421 27.2785V26.6962H44.0586V27.2785H43.7421ZM46.4512 31.3797C46.2191 31.3797 46.0039 31.3354 45.8056 31.2468C45.6073 31.154 45.4343 31.0295 45.2866 30.8734C45.1432 30.7131 45.0292 30.5295 44.9448 30.3228C44.8647 30.116 44.8246 29.8945 44.8246 29.6582C44.8246 29.4262 44.8647 29.2089 44.9448 29.0063C45.0292 28.7996 45.1432 28.6202 45.2866 28.4684C45.4301 28.3122 45.5989 28.1899 45.7929 28.1013C45.9913 28.0127 46.2043 27.9684 46.4322 27.9684C46.6643 27.9684 46.8794 28.0148 47.0778 28.1076C47.2761 28.1962 47.447 28.3186 47.5904 28.4747C47.7339 28.6266 47.8457 28.8059 47.9259 29.0127C48.006 29.2152 48.0461 29.4304 48.0461 29.6582C48.0461 29.6793 48.0461 29.7067 48.0461 29.7405C48.0461 29.77 48.044 29.789 48.0398 29.7975H45.1537C45.1664 29.9873 45.2107 30.1646 45.2866 30.3291C45.3626 30.4894 45.4575 30.6287 45.5714 30.7468C45.6896 30.865 45.8246 30.9578 45.9765 31.0253C46.1284 31.0928 46.2908 31.1266 46.4638 31.1266C46.5778 31.1266 46.6896 31.1118 46.7993 31.0823C46.909 31.0485 47.0102 31.0042 47.1031 30.9494C47.2001 30.8945 47.2845 30.8291 47.3562 30.7532C47.4322 30.673 47.4913 30.5865 47.5335 30.4937L47.8119 30.5696C47.7655 30.6878 47.6959 30.7975 47.6031 30.8987C47.5145 30.9958 47.409 31.0802 47.2866 31.1519C47.1685 31.2236 47.0377 31.2785 46.8942 31.3165C46.7508 31.3586 46.6031 31.3797 46.4512 31.3797ZM47.7423 29.5443C47.7297 29.3502 47.6854 29.173 47.6094 29.0127C47.5377 28.8523 47.4427 28.7152 47.3246 28.6013C47.2107 28.4831 47.0778 28.3924 46.9259 28.3291C46.774 28.2616 46.6115 28.2278 46.4385 28.2278C46.2655 28.2278 46.1031 28.2616 45.9512 28.3291C45.7993 28.3924 45.6643 28.4831 45.5461 28.6013C45.4322 28.7152 45.3394 28.8544 45.2676 29.019C45.2001 29.1793 45.16 29.3544 45.1474 29.5443H47.7423ZM50.2993 28.3101C50.004 28.3186 49.7445 28.4072 49.5208 28.5759C49.3014 28.7405 49.1474 28.9684 49.0588 29.2595V31.3165H48.7424V28.0253H49.0462V28.8354C49.1601 28.6034 49.3099 28.4156 49.4955 28.2721C49.6854 28.1245 49.8879 28.0401 50.1031 28.019C50.1453 28.0148 50.1833 28.0127 50.217 28.0127C50.2508 28.0127 50.2782 28.0127 50.2993 28.0127V28.3101ZM52.1123 31.3797C51.8803 31.3797 51.6651 31.3354 51.4668 31.2468C51.2727 31.154 51.1039 31.0295 50.9604 30.8734C50.817 30.7173 50.7051 30.5359 50.625 30.3291C50.5448 30.1224 50.5047 29.9051 50.5047 29.6772C50.5047 29.4451 50.5448 29.2257 50.625 29.019C50.7094 28.8122 50.8233 28.6308 50.9668 28.4747C51.1102 28.3186 51.279 28.1962 51.4731 28.1076C51.6714 28.0148 51.8845 27.9684 52.1123 27.9684C52.3402 27.9684 52.5511 28.0148 52.7452 28.1076C52.9393 28.1962 53.1081 28.3186 53.2516 28.4747C53.3992 28.6308 53.5132 28.8122 53.5933 29.019C53.6777 29.2257 53.7199 29.4451 53.7199 29.6772C53.7199 29.9051 53.6777 30.1224 53.5933 30.3291C53.5132 30.5359 53.4014 30.7173 53.2579 30.8734C53.1144 31.0295 52.9435 31.154 52.7452 31.2468C52.5511 31.3354 52.3402 31.3797 52.1123 31.3797ZM50.8212 29.6899C50.8212 29.884 50.8549 30.0675 50.9224 30.2405C50.99 30.4093 51.0807 30.557 51.1946 30.6835C51.3127 30.8101 51.4499 30.9114 51.606 30.9873C51.7621 31.0591 51.9288 31.0949 52.106 31.0949C52.2832 31.0949 52.4499 31.0591 52.606 30.9873C52.7621 30.9114 52.8992 30.808 53.0174 30.6772C53.1355 30.5464 53.2284 30.3966 53.2959 30.2278C53.3634 30.0548 53.3971 29.8692 53.3971 29.6709C53.3971 29.4768 53.3634 29.2954 53.2959 29.1266C53.2284 28.9536 53.1355 28.8038 53.0174 28.6772C52.8992 28.5464 52.7621 28.443 52.606 28.3671C52.4541 28.2911 52.2895 28.2532 52.1123 28.2532C51.9351 28.2532 51.7684 28.2911 51.6123 28.3671C51.4562 28.443 51.3191 28.5464 51.2009 28.6772C51.087 28.808 50.9942 28.962 50.9224 29.1392C50.8549 29.3122 50.8212 29.4958 50.8212 29.6899ZM54.5984 31.8291L54.6933 31.3291H54.5794V30.7785H54.9022V31.3291L54.7693 31.8291H54.5984ZM57.6371 26.6962H57.9599V30.6646C57.9599 30.7869 57.9936 30.884 58.0611 30.9557C58.1329 31.0274 58.2299 31.0633 58.3523 31.0633C58.3987 31.0633 58.4535 31.0591 58.5168 31.0506C58.5843 31.038 58.6455 31.0211 58.7004 31L58.7637 31.2532C58.6919 31.2827 58.6033 31.3059 58.4978 31.3228C58.3924 31.3439 58.3016 31.3544 58.2257 31.3544C58.0485 31.3544 57.905 31.3017 57.7953 31.1962C57.6898 31.0865 57.6371 30.9409 57.6371 30.7595V26.6962ZM60.6294 31.3797C60.3974 31.3797 60.1822 31.3354 59.9839 31.2468C59.7898 31.154 59.621 31.0295 59.4775 30.8734C59.3341 30.7173 59.2223 30.5359 59.1421 30.3291C59.0619 30.1224 59.0218 29.9051 59.0218 29.6772C59.0218 29.4451 59.0619 29.2257 59.1421 29.019C59.2265 28.8122 59.3404 28.6308 59.4839 28.4747C59.6273 28.3186 59.7961 28.1962 59.9902 28.1076C60.1885 28.0148 60.4016 27.9684 60.6294 27.9684C60.8573 27.9684 61.0682 28.0148 61.2623 28.1076C61.4564 28.1962 61.6252 28.3186 61.7687 28.4747C61.9163 28.6308 62.0303 28.8122 62.1104 29.019C62.1948 29.2257 62.237 29.4451 62.237 29.6772C62.237 29.9051 62.1948 30.1224 62.1104 30.3291C62.0303 30.5359 61.9185 30.7173 61.775 30.8734C61.6315 31.0295 61.4606 31.154 61.2623 31.2468C61.0682 31.3354 60.8573 31.3797 60.6294 31.3797ZM59.3383 29.6899C59.3383 29.884 59.372 30.0675 59.4396 30.2405C59.5071 30.4093 59.5978 30.557 59.7117 30.6835C59.8298 30.8101 59.967 30.9114 60.1231 30.9873C60.2792 31.0591 60.4459 31.0949 60.6231 31.0949C60.8003 31.0949 60.967 31.0591 61.1231 30.9873C61.2792 30.9114 61.4163 30.808 61.5345 30.6772C61.6526 30.5464 61.7455 30.3966 61.813 30.2278C61.8805 30.0548 61.9142 29.8692 61.9142 29.6709C61.9142 29.4768 61.8805 29.2954 61.813 29.1266C61.7455 28.9536 61.6526 28.8038 61.5345 28.6772C61.4163 28.5464 61.2792 28.443 61.1231 28.3671C60.9712 28.2911 60.8066 28.2532 60.6294 28.2532C60.4522 28.2532 60.2855 28.2911 60.1294 28.3671C59.9733 28.443 59.8362 28.5464 59.718 28.6772C59.6041 28.808 59.5113 28.962 59.4396 29.1392C59.372 29.3122 59.3383 29.4958 59.3383 29.6899ZM65.4309 31.3797C65.279 31.3797 65.1377 31.3544 65.0069 31.3038C64.8761 31.2489 64.76 31.1772 64.6588 31.0886C64.5617 30.9958 64.4858 30.8882 64.4309 30.7658C64.3761 30.6392 64.3486 30.5042 64.3486 30.3608C64.3486 30.2173 64.3824 30.0865 64.4499 29.9684C64.5174 29.8502 64.6102 29.7489 64.7284 29.6646C64.8507 29.5759 64.9963 29.5084 65.1651 29.462C65.3339 29.4114 65.5195 29.3861 65.722 29.3861C65.8993 29.3861 66.0765 29.4029 66.2537 29.4367C66.4351 29.4662 66.5976 29.5084 66.741 29.5633V29.2405C66.741 28.9283 66.6524 28.6814 66.4752 28.5C66.298 28.3143 66.0575 28.2215 65.7537 28.2215C65.5934 28.2215 65.4225 28.2553 65.241 28.3228C65.0638 28.3903 64.8824 28.4873 64.6967 28.6139L64.5765 28.3987C64.9984 28.1118 65.3993 27.9684 65.779 27.9684C66.1756 27.9684 66.4879 28.0844 66.7157 28.3165C66.9436 28.5443 67.0575 28.8608 67.0575 29.2658V30.8734C67.0575 30.9789 67.1039 31.0316 67.1967 31.0316V31.3165C67.1756 31.3207 67.1524 31.3228 67.1271 31.3228C67.106 31.327 67.087 31.3291 67.0701 31.3291C66.9858 31.3291 66.9182 31.3017 66.8676 31.2468C66.817 31.1878 66.7874 31.1181 66.779 31.038V30.7658C66.6271 30.9641 66.433 31.116 66.1967 31.2215C65.9604 31.327 65.7052 31.3797 65.4309 31.3797ZM65.4942 31.1266C65.7389 31.1266 65.9625 31.0802 66.1651 30.9873C66.3718 30.8945 66.5301 30.7721 66.6398 30.6202C66.7073 30.5316 66.741 30.4473 66.741 30.3671V29.7848C66.5891 29.7257 66.4309 29.6814 66.2663 29.6519C66.1018 29.6224 65.9309 29.6076 65.7537 29.6076C65.5891 29.6076 65.4393 29.6266 65.3043 29.6646C65.1693 29.6983 65.0533 29.7468 64.9562 29.8101C64.8592 29.8734 64.7832 29.9515 64.7284 30.0443C64.6777 30.1329 64.6524 30.2321 64.6524 30.3418C64.6524 30.4515 64.6735 30.5548 64.7157 30.6519C64.7579 30.7489 64.817 30.8333 64.8929 30.9051C64.9689 30.9726 65.0575 31.0274 65.1588 31.0696C65.2642 31.1076 65.3761 31.1266 65.4942 31.1266ZM69.3746 31.3797C69.1468 31.3797 68.9358 31.3333 68.7417 31.2405C68.5476 31.1435 68.3789 31.0169 68.2354 30.8608C68.0962 30.7004 67.9864 30.519 67.9063 30.3165C67.8303 30.1097 67.7924 29.8966 67.7924 29.6772C67.7924 29.4494 67.8303 29.2321 67.9063 29.0253C67.9822 28.8186 68.0877 28.6371 68.2227 28.481C68.3578 28.3249 68.516 28.2004 68.6974 28.1076C68.8831 28.0148 69.0856 27.9684 69.305 27.9684C69.4485 27.9684 69.5835 27.9894 69.7101 28.0316C69.8367 28.0738 69.9548 28.1308 70.0645 28.2025C70.1742 28.27 70.2734 28.3502 70.362 28.443C70.4506 28.5359 70.5265 28.635 70.5898 28.7405V26.6962H70.9063V30.8734C70.9063 30.9789 70.9506 31.0316 71.0392 31.0316V31.3165C71.0139 31.3207 70.9928 31.3228 70.9759 31.3228C70.959 31.327 70.9421 31.3291 70.9253 31.3291C70.8409 31.3291 70.7691 31.2975 70.7101 31.2342C70.651 31.1667 70.6215 31.097 70.6215 31.0253V30.6582C70.4864 30.8776 70.305 31.0527 70.0772 31.1835C69.8535 31.3143 69.6194 31.3797 69.3746 31.3797ZM69.4316 31.0949C69.5455 31.0949 69.6679 31.0717 69.7987 31.0253C69.9295 30.9789 70.0497 30.9156 70.1594 30.8354C70.2734 30.7511 70.3704 30.6561 70.4506 30.5506C70.5308 30.4451 70.5772 30.3312 70.5898 30.2089V29.1266C70.5434 29.0084 70.4759 28.8966 70.3873 28.7911C70.3029 28.6814 70.2059 28.5886 70.0962 28.5127C69.9864 28.4325 69.8683 28.3692 69.7417 28.3228C69.6151 28.2764 69.4928 28.2532 69.3746 28.2532C69.1848 28.2532 69.0118 28.2954 68.8556 28.3797C68.6995 28.4599 68.5666 28.5675 68.4569 28.7025C68.3472 28.8333 68.2628 28.9852 68.2037 29.1582C68.1447 29.327 68.1151 29.5021 68.1151 29.6835C68.1151 29.8734 68.1489 30.0527 68.2164 30.2215C68.2839 30.3903 68.3767 30.5401 68.4949 30.6709C68.6172 30.8017 68.7565 30.9051 68.9126 30.981C69.0729 31.057 69.2459 31.0949 69.4316 31.0949ZM73.1926 31.3797C72.9647 31.3797 72.758 31.3333 72.5723 31.2405C72.3909 31.1435 72.2327 31.0169 72.0976 30.8608C71.9668 30.7004 71.8656 30.519 71.7938 30.3165C71.7221 30.1097 71.6862 29.8966 71.6862 29.6772C71.6862 29.4494 71.7263 29.2321 71.8065 29.0253C71.8909 28.8186 72.0027 28.6371 72.1419 28.481C72.2854 28.3249 72.4521 28.2004 72.6419 28.1076C72.836 28.0148 73.0428 27.9684 73.2622 27.9684C73.5196 27.9684 73.7601 28.038 73.9837 28.1772C74.2073 28.3122 74.3824 28.4831 74.509 28.6899V28.0253H74.8002V32.2089C74.8002 32.3143 74.8445 32.3692 74.9331 32.3734V32.6519C74.912 32.6561 74.893 32.6582 74.8761 32.6582C74.8592 32.6582 74.8424 32.6582 74.8255 32.6582C74.7284 32.6582 74.6462 32.6266 74.5786 32.5633C74.5154 32.5042 74.4837 32.424 74.4837 32.3228V30.6076C74.1377 31.1224 73.7073 31.3797 73.1926 31.3797ZM73.2748 31.0949C73.4141 31.0949 73.5428 31.0717 73.6609 31.0253C73.7833 30.9789 73.8951 30.9177 73.9964 30.8418C74.0976 30.7658 74.1884 30.6772 74.2685 30.5759C74.3529 30.4705 74.4246 30.3608 74.4837 30.2468V29.1709C74.4668 29.0485 74.4204 28.9325 74.3445 28.8228C74.2685 28.7131 74.1736 28.616 74.0597 28.5316C73.95 28.4473 73.8297 28.3797 73.6989 28.3291C73.5681 28.2785 73.4394 28.2532 73.3128 28.2532C73.1229 28.2532 72.9478 28.2954 72.7875 28.3797C72.6272 28.4599 72.4879 28.5675 72.3698 28.7025C72.2559 28.8333 72.1673 28.9852 72.104 29.1582C72.0407 29.3312 72.009 29.5063 72.009 29.6835C72.009 29.8734 72.0407 30.0527 72.104 30.2215C72.1673 30.3903 72.2538 30.5401 72.3635 30.6709C72.4774 30.8017 72.6103 30.9051 72.7622 30.981C72.9183 31.057 73.0892 31.0949 73.2748 31.0949ZM76.8084 31.3797C76.108 31.3797 75.7578 30.8945 75.7578 29.924V28.0253H76.0742V29.8797C76.0742 30.6899 76.3506 31.0949 76.9034 31.0949C77.0426 31.0949 77.1776 31.0717 77.3084 31.0253C77.4392 30.9747 77.5616 30.9072 77.6755 30.8228C77.7894 30.7342 77.8886 30.6287 77.973 30.5063C78.0616 30.384 78.1312 30.2489 78.1818 30.1013V28.0253H78.4983V30.8734C78.4983 30.9789 78.5426 31.0316 78.6312 31.0316V31.3165C78.6101 31.3207 78.5911 31.3228 78.5742 31.3228C78.5574 31.3228 78.5447 31.3228 78.5363 31.3228C78.4519 31.3228 78.3759 31.2975 78.3084 31.2468C78.2451 31.192 78.2135 31.1202 78.2135 31.0316V30.538C78.07 30.8038 77.8717 31.0105 77.6185 31.1582C77.3696 31.3059 77.0996 31.3797 76.8084 31.3797ZM79.5041 31.3165V28.0253H79.8205V31.3165H79.5041ZM79.5041 27.2785V26.6962H79.8205V27.2785H79.5041ZM82.2131 31.3797C81.9811 31.3797 81.7659 31.3354 81.5676 31.2468C81.3693 31.154 81.1963 31.0295 81.0486 30.8734C80.9051 30.7131 80.7912 30.5295 80.7068 30.3228C80.6266 30.116 80.5866 29.8945 80.5866 29.6582C80.5866 29.4262 80.6266 29.2089 80.7068 29.0063C80.7912 28.7996 80.9051 28.6202 81.0486 28.4684C81.192 28.3122 81.3608 28.1899 81.5549 28.1013C81.7532 28.0127 81.9663 27.9684 82.1941 27.9684C82.4262 27.9684 82.6414 28.0148 82.8397 28.1076C83.038 28.1962 83.2089 28.3186 83.3524 28.4747C83.4958 28.6266 83.6077 28.8059 83.6878 29.0127C83.768 29.2152 83.8081 29.4304 83.8081 29.6582C83.8081 29.6793 83.8081 29.7067 83.8081 29.7405C83.8081 29.77 83.806 29.789 83.8017 29.7975H80.9157C80.9283 29.9873 80.9726 30.1646 81.0486 30.3291C81.1245 30.4894 81.2195 30.6287 81.3334 30.7468C81.4515 30.865 81.5866 30.9578 81.7385 31.0253C81.8904 31.0928 82.0528 31.1266 82.2258 31.1266C82.3397 31.1266 82.4515 31.1118 82.5612 31.0823C82.6709 31.0485 82.7722 31.0042 82.865 30.9494C82.9621 30.8945 83.0465 30.8291 83.1182 30.7532C83.1941 30.673 83.2532 30.5865 83.2954 30.4937L83.5739 30.5696C83.5275 30.6878 83.4579 30.7975 83.365 30.8987C83.2764 30.9958 83.1709 31.0802 83.0486 31.1519C82.9304 31.2236 82.7996 31.2785 82.6562 31.3165C82.5127 31.3586 82.365 31.3797 82.2131 31.3797ZM83.5043 29.5443C83.4916 29.3502 83.4473 29.173 83.3714 29.0127C83.2996 28.8523 83.2047 28.7152 83.0866 28.6013C82.9726 28.4831 82.8397 28.3924 82.6878 28.3291C82.5359 28.2616 82.3735 28.2278 82.2005 28.2278C82.0275 28.2278 81.865 28.2616 81.7131 28.3291C81.5612 28.3924 81.4262 28.4831 81.3081 28.6013C81.1941 28.7152 81.1013 28.8544 81.0296 29.019C80.9621 29.1793 80.922 29.3544 80.9093 29.5443H83.5043ZM86.0613 28.3101C85.7659 28.3186 85.5064 28.4072 85.2828 28.5759C85.0634 28.7405 84.9094 28.9684 84.8208 29.2595V31.3165H84.5043V28.0253H84.8081V28.8354C84.9221 28.6034 85.0718 28.4156 85.2575 28.2721C85.4474 28.1245 85.6499 28.0401 85.8651 28.019C85.9073 28.0148 85.9453 28.0127 85.979 28.0127C86.0128 28.0127 86.0402 28.0127 86.0613 28.0127V28.3101ZM87.8743 31.3797C87.6422 31.3797 87.427 31.3354 87.2287 31.2468C87.0346 31.154 86.8658 31.0295 86.7224 30.8734C86.5789 30.7173 86.4671 30.5359 86.3869 30.3291C86.3068 30.1224 86.2667 29.9051 86.2667 29.6772C86.2667 29.4451 86.3068 29.2257 86.3869 29.019C86.4713 28.8122 86.5853 28.6308 86.7287 28.4747C86.8722 28.3186 87.041 28.1962 87.235 28.1076C87.4334 28.0148 87.6464 27.9684 87.8743 27.9684C88.1021 27.9684 88.3131 28.0148 88.5072 28.1076C88.7013 28.1962 88.8701 28.3186 89.0135 28.4747C89.1612 28.6308 89.2751 28.8122 89.3553 29.019C89.4397 29.2257 89.4819 29.4451 89.4819 29.6772C89.4819 29.9051 89.4397 30.1224 89.3553 30.3291C89.2751 30.5359 89.1633 30.7173 89.0199 30.8734C88.8764 31.0295 88.7055 31.154 88.5072 31.2468C88.3131 31.3354 88.1021 31.3797 87.8743 31.3797ZM86.5831 29.6899C86.5831 29.884 86.6169 30.0675 86.6844 30.2405C86.7519 30.4093 86.8426 30.557 86.9566 30.6835C87.0747 30.8101 87.2118 30.9114 87.368 30.9873C87.5241 31.0591 87.6907 31.0949 87.868 31.0949C88.0452 31.0949 88.2118 31.0591 88.368 30.9873C88.5241 30.9114 88.6612 30.808 88.7794 30.6772C88.8975 30.5464 88.9903 30.3966 89.0578 30.2278C89.1253 30.0548 89.1591 29.8692 89.1591 29.6709C89.1591 29.4768 89.1253 29.2954 89.0578 29.1266C88.9903 28.9536 88.8975 28.8038 88.7794 28.6772C88.6612 28.5464 88.5241 28.443 88.368 28.3671C88.2161 28.2911 88.0515 28.2532 87.8743 28.2532C87.6971 28.2532 87.5304 28.2911 87.3743 28.3671C87.2182 28.443 87.081 28.5464 86.9629 28.6772C86.849 28.808 86.7561 28.962 86.6844 29.1392C86.6169 29.3122 86.5831 29.4958 86.5831 29.6899ZM90.354 29.9367V26.7785H90.6768V29.9367H90.354ZM90.354 31.3165V30.6709H90.6768V31.3165H90.354Z" fill="black"/>
</svg>
