<svg width="28" height="28" viewBox="0 0 28 28" fill="none" xmlns="http://www.w3.org/2000/svg">
<path d="M26.9907 14.4413L14.9907 1.10797C14.4853 0.545307 13.5147 0.545307 13.0093 1.10797L1.00933 14.4413C0.655997 14.832 0.567997 15.3946 0.782663 15.876C0.995997 16.3573 1.47333 16.6666 2 16.6666H4.66666V26C4.66666 26.736 5.26266 27.3333 6 27.3333H10C10.7373 27.3333 11.3333 26.736 11.3333 26V20.6666H16.6667V26C16.6667 26.736 17.2627 27.3333 18 27.3333H22C22.7373 27.3333 23.3333 26.736 23.3333 26V16.6666H26C26.5267 16.6666 27.004 16.3573 27.2173 15.876C27.432 15.3946 27.344 14.8333 26.9907 14.4413Z" fill="#E82C33"/>
</svg>
