<svg width="61" height="61" viewBox="0 0 61 61" fill="none" xmlns="http://www.w3.org/2000/svg">
<path d="M8.89397 51.7667C11.7877 51.7667 14.1419 49.4125 14.1419 46.5188C14.1419 43.6251 11.7877 41.2709 8.89397 41.2709C6.00028 41.2709 3.64618 43.6251 3.64618 46.5188C3.64618 47.5703 3.9563 48.5852 4.54295 49.4536C4.81912 49.8625 5.37467 49.9702 5.78356 49.6938C6.19245 49.4175 6.30004 48.8621 6.02375 48.4532C5.6375 47.8814 5.43329 47.2126 5.43329 46.5189C5.43329 44.6107 6.98581 43.0581 8.89409 43.0581C10.8024 43.0581 12.3549 44.6107 12.3549 46.5189C12.3549 48.4272 10.8024 49.9797 8.89409 49.9797C8.40061 49.9797 8.00053 50.3798 8.00053 50.8733C8.00053 51.3668 8.40049 51.7667 8.89397 51.7667Z" fill="white"/>
<path d="M8.89397 28.988C6.00028 28.988 3.64618 31.3422 3.64618 34.2359C3.64618 37.1296 6.0004 39.4838 8.89397 39.4838C11.7877 39.4838 14.1419 37.1296 14.1419 34.2359C14.1419 31.3422 11.7877 28.988 8.89397 28.988ZM8.89397 37.6967C6.98569 37.6967 5.43317 36.1442 5.43317 34.2359C5.43317 32.3276 6.98569 30.7751 8.89397 30.7751C10.8022 30.7751 12.3548 32.3276 12.3548 34.2359C12.3548 36.1442 10.8022 37.6967 8.89397 37.6967Z" fill="white"/>
<path d="M15.0154 25.4208H2.77253C1.24455 25.4208 0.00143814 26.6639 0.00143814 28.1919V60.1064C0.00143814 60.5999 0.401512 61 0.894993 61H16.893C17.3864 61 17.7865 60.5999 17.7865 60.1064V34.5167C17.7865 34.0232 17.3864 33.6231 16.893 33.6231C16.3995 33.6231 15.9994 34.0232 15.9994 34.5167V53.4941H1.78855V28.1919C1.78855 27.6493 2.22996 27.2079 2.77253 27.2079H15.0154C15.558 27.2079 15.9994 27.6493 15.9994 28.1919V30.3868C15.9994 30.8803 16.3995 31.2803 16.893 31.2803C17.3864 31.2803 17.7865 30.8803 17.7865 30.3868V28.1919C17.7865 26.6639 16.5434 25.4208 15.0154 25.4208ZM15.9994 55.2812V59.2129H1.78855V55.2812H15.9994Z" fill="white"/>
<path d="M52.1051 41.2709C49.2114 41.2709 46.8571 43.6251 46.8571 46.5188C46.8571 49.4125 49.2114 51.7667 52.1051 51.7667C54.9987 51.7667 57.3528 49.4125 57.3528 46.5188C57.353 43.6251 54.9987 41.2709 52.1051 41.2709ZM52.1051 49.9796C50.1968 49.9796 48.6443 48.4271 48.6443 46.5188C48.6443 44.6105 50.1968 43.058 52.1051 43.058C54.0133 43.058 55.5659 44.6105 55.5659 46.5188C55.5659 48.4271 54.0133 49.9796 52.1051 49.9796Z" fill="white"/>
<path d="M52.1051 28.988C49.2114 28.988 46.8571 31.3422 46.8571 34.2359C46.8571 37.1296 49.2114 39.4838 52.1051 39.4838C54.9987 39.4838 57.3528 37.1296 57.3528 34.2359C57.353 31.3422 54.9987 28.988 52.1051 28.988ZM52.1051 37.6967C50.1968 37.6967 48.6443 36.1442 48.6443 34.2359C48.6443 32.3276 50.1968 30.7751 52.1051 30.7751C54.0133 30.7751 55.5659 32.3276 55.5659 34.2359C55.5659 36.1442 54.0133 37.6967 52.1051 37.6967Z" fill="white"/>
<path d="M58.2265 25.4208H45.9836C44.4557 25.4208 43.2125 26.6639 43.2125 28.1919V60.1064C43.2125 60.5999 43.6126 61 44.1061 61H60.1041C60.5975 61 60.9976 60.5999 60.9976 60.1064V50.6521C60.9976 50.1587 60.5975 49.7586 60.1041 49.7586C59.6106 49.7586 59.2105 50.1587 59.2105 50.6521V53.4941H44.9996V28.1919C44.9996 27.6493 45.4411 27.2079 45.9836 27.2079H58.2265C58.7691 27.2079 59.2105 27.6493 59.2105 28.1919V46.5188C59.2105 47.0123 59.6106 47.4124 60.1041 47.4124C60.5975 47.4124 60.9976 47.0123 60.9976 46.5188V28.1919C60.9976 26.6639 59.7545 25.4208 58.2265 25.4208ZM59.2105 55.2812V59.2129H44.9996V55.2812H59.2105Z" fill="white"/>
<path d="M40.4149 30.3868C40.4149 30.1039 40.2808 29.8377 40.0538 29.6693C39.8267 29.5008 39.533 29.4497 39.2623 29.5318L27.4675 33.106C27.0907 33.2201 26.8331 33.5675 26.8331 33.9612V38.7088C26.8328 38.721 26.8328 38.733 26.8331 38.7451V49.8639C26.1617 49.3972 25.3468 49.1232 24.469 49.1232C22.1799 49.1232 20.3178 50.9854 20.3178 53.2745C20.3178 55.5635 22.1799 57.4257 24.469 57.4257C26.758 57.4257 28.6202 55.5635 28.6202 53.2745V39.3896L33.0872 38.0359C33.5595 37.8928 33.8264 37.3939 33.6832 36.9216C33.5401 36.4493 33.041 36.1824 32.5689 36.3256L28.6202 37.5223V34.6241L38.6279 31.5914V34.4896L36.4853 35.1389C36.013 35.282 35.7461 35.7809 35.8893 36.2532C36.0062 36.6391 36.3608 36.8879 36.7442 36.8879C36.8299 36.8879 36.9173 36.8755 37.0036 36.8493L38.628 36.3571V46.29C37.9566 45.8232 37.1417 45.5493 36.2639 45.5493C33.9748 45.5493 32.1127 47.4114 32.1127 49.7005C32.1127 51.9895 33.9748 53.8517 36.2639 53.8517C38.5529 53.8517 40.4151 51.9895 40.4151 49.7005V35.1702C40.4153 35.1581 40.4153 35.146 40.4151 35.1339V30.3868H40.4149ZM24.4689 55.6387C23.1653 55.6387 22.1047 54.5781 22.1047 53.2746C22.1047 51.9711 23.1653 50.9105 24.4689 50.9105C25.7724 50.9105 26.833 51.9711 26.833 53.2746C26.833 54.5781 25.7724 55.6387 24.4689 55.6387ZM36.2637 52.0645C34.9601 52.0645 33.8995 51.0039 33.8995 49.7004C33.8995 48.3969 34.9601 47.3363 36.2637 47.3363C37.5672 47.3363 38.6278 48.3969 38.6278 49.7004C38.6278 51.0039 37.5672 52.0645 36.2637 52.0645Z" fill="white"/>
<path d="M52.2123 35.1377C52.7041 35.0963 53.0691 34.664 53.0277 34.1723C52.9863 33.6805 52.5541 33.3155 52.0623 33.3569C51.5705 33.3983 51.2055 33.8306 51.2469 34.3223C51.2883 34.8141 51.7206 35.1791 52.2123 35.1377Z" fill="white"/>
<path d="M52.1049 45.6432C51.6117 45.6432 51.2119 46.0431 51.2119 46.5363C51.2119 47.0296 51.6117 47.4294 52.1049 47.4294C52.5982 47.4294 52.998 47.0296 52.998 46.5363C52.998 46.0431 52.5982 45.6432 52.1049 45.6432Z" fill="white"/>
<path d="M9.77353 34.3404C9.83519 33.8512 9.48852 33.4045 8.99923 33.3429C8.50995 33.2812 8.06332 33.6279 8.00166 34.1172C7.94001 34.6065 8.28668 35.0531 8.77596 35.1147C9.26525 35.1764 9.71188 34.8297 9.77353 34.3404Z" fill="white"/>
<path d="M9.78608 46.5364C9.78608 46.0432 9.38624 45.6433 8.893 45.6433C8.39976 45.6433 7.99992 46.0432 7.99992 46.5364C7.99992 47.0297 8.39976 47.4295 8.893 47.4295C9.38624 47.4294 9.78608 47.0295 9.78608 46.5364Z" fill="white"/>
<path d="M38.6884 56.7357C38.1952 56.7357 37.7953 57.1356 37.7953 57.6288C37.7953 58.1221 38.1952 58.5219 38.6884 58.5219C39.1817 58.5219 39.5815 58.1221 39.5815 57.6288C39.5815 57.1356 39.1817 56.7357 38.6884 56.7357Z" fill="white"/>
<path d="M53.1654 18.0081C52.7203 18.2211 52.5322 18.7548 52.7452 19.1999L54.211 22.2624C54.3646 22.5831 54.6844 22.7704 55.0177 22.7704C55.147 22.7704 55.2784 22.7422 55.4028 22.6826C55.8479 22.4696 56.036 21.9359 55.823 21.4908L54.3572 18.4283C54.144 17.9833 53.6105 17.795 53.1654 18.0081Z" fill="white"/>
<path d="M33.112 23.0439C33.4207 23.0439 33.7211 22.8837 33.8865 22.5972C34.1334 22.1699 33.9871 21.6233 33.5597 21.3764L30.6209 19.6787C30.1937 19.4318 29.647 19.578 29.4002 20.0055C29.1533 20.4327 29.2996 20.9793 29.727 21.2262L32.6658 22.924C32.8067 23.0052 32.9602 23.0439 33.112 23.0439Z" fill="white"/>
<path d="M3.09683 22.3194C3.39206 22.3194 3.6811 22.1731 3.85135 21.9057L5.6748 19.042C5.93988 18.6257 5.81729 18.0734 5.40101 17.8084C4.98461 17.5432 4.4324 17.6659 4.16743 18.0822L2.34398 20.9459C2.07889 21.3621 2.20149 21.9145 2.61777 22.1794C2.76645 22.2742 2.93254 22.3194 3.09683 22.3194Z" fill="white"/>
<path d="M22.7155 28.438C22.9833 28.438 23.2483 28.318 23.4242 28.0894L24.9695 26.0814C25.2704 25.6903 25.1974 25.1293 24.8063 24.8283C24.4151 24.5274 23.8541 24.6004 23.5531 24.9915L22.0079 26.9995C21.7069 27.3907 21.78 27.9517 22.1711 28.2526C22.3336 28.3775 22.5253 28.438 22.7155 28.438Z" fill="white"/>
<path d="M43.4169 17.1402L46.9381 5.34912C47.9418 5.2743 48.8748 5.19221 49.7419 5.10369V14.4036C49.7419 14.7853 49.9844 15.1247 50.3453 15.2487C50.4404 15.2814 50.5384 15.2972 50.6352 15.2972C50.9057 15.2972 51.1679 15.1742 51.3406 14.9524L54.0654 11.452L56.2592 12.9907C56.5321 13.1821 56.8888 13.2057 57.1845 13.0519C57.4802 12.8981 57.6658 12.5925 57.6658 12.2592V3.67043C60.2406 2.82572 60.885 1.85794 60.9929 1.00549C61.0548 0.515941 60.7081 0.0688067 60.2186 0.00685355C59.7288 -0.0547421 59.2818 0.2916 59.2199 0.781267C59.2187 0.790799 58.9735 1.76239 54.4949 2.62926C49.6032 3.57583 41.5303 4.05585 30.4999 4.05585C19.4695 4.05585 11.3965 3.57583 6.50496 2.62914C2.02635 1.76227 1.78115 0.79068 1.77996 0.781148C1.71801 0.29148 1.27052 -0.0547421 0.781326 0.00673441C0.291777 0.0688067 -0.0549221 0.515822 0.00703099 1.00549C0.114853 1.85794 0.759285 2.8256 3.33403 3.67043V12.2593C3.33403 12.5926 3.51953 12.8982 3.81536 13.052C4.11083 13.2058 4.46777 13.1823 4.74073 12.9908L6.93446 11.4521L9.65933 14.9526C9.83196 15.1743 10.0942 15.2974 10.3646 15.2974C10.4615 15.2974 10.5594 15.2816 10.6546 15.2489C11.0156 15.1248 11.258 14.7854 11.258 14.4037V5.10381C12.1251 5.19233 13.0581 5.27442 14.0618 5.34924L17.583 17.1403C17.6957 17.5177 18.0421 17.7767 18.4357 17.7782H18.4393C18.8315 17.7782 19.1782 17.5223 19.2934 17.147L22.7927 5.75527C23.6698 5.77683 24.5804 5.79459 25.5255 5.80841V14.7404C25.5255 15.0605 25.6967 15.356 25.9743 15.5154C26.2519 15.6747 26.5936 15.6735 26.8699 15.5119L30.4999 13.3909L34.13 15.5118C34.2693 15.5932 34.425 15.6338 34.5808 15.6338C34.7343 15.6338 34.8878 15.5943 35.0256 15.5153C35.3032 15.356 35.4744 15.0604 35.4744 14.7403V5.80829C36.4196 5.79447 37.3302 5.77671 38.2072 5.75515L41.7065 17.1469C41.8218 17.5222 42.1683 17.7781 42.5606 17.7781H42.5642C42.9579 17.7766 43.3042 17.5175 43.4169 17.1402ZM51.529 4.90103C53.2778 4.68074 54.7088 4.43066 55.8786 4.16045V10.541L54.3956 9.50081C54.0057 9.22726 53.4697 9.30768 53.1773 9.68345L51.529 11.8011V4.90103ZM9.47073 11.8012L7.82242 9.68345C7.52981 9.3078 6.99415 9.22715 6.6042 9.50081L5.12114 10.541V4.16045C6.29098 4.43066 7.72198 4.68074 9.47073 4.90103V11.8012ZM18.4511 13.8023L15.965 5.47684C17.4771 5.56774 19.1309 5.64375 20.9392 5.70237L18.4511 13.8023ZM33.6872 13.1834L30.9506 11.5846C30.6722 11.4218 30.3276 11.4218 30.0492 11.5846L27.3125 13.1834V5.82926C28.3364 5.83831 29.3984 5.84308 30.4999 5.84308C31.6013 5.84308 32.6634 5.83843 33.6872 5.82926V13.1834ZM42.5487 13.8023L40.0606 5.70249C41.8689 5.64375 43.5227 5.56786 45.0348 5.47696L42.5487 13.8023Z" fill="white"/>
<path d="M14.2659 21.5316C14.2659 21.0383 13.866 20.6385 13.3728 20.6385C12.8795 20.6385 12.4797 21.0383 12.4797 21.5316C12.4797 22.0248 12.8795 22.4246 13.3728 22.4246C13.866 22.4248 14.2659 22.0249 14.2659 21.5316Z" fill="white"/>
<path d="M29.6074 27.9854C29.6074 28.4787 30.0072 28.8785 30.5005 28.8785C30.9937 28.8785 31.3935 28.4787 31.3935 27.9854C31.3935 27.4922 30.9937 27.0923 30.5005 27.0923C30.0072 27.0925 29.6074 27.4922 29.6074 27.9854Z" fill="white"/>
<path d="M44.4144 22.2537C44.4144 21.7604 44.0146 21.3606 43.5213 21.3606C43.0281 21.3606 42.6283 21.7604 42.6283 22.2537C42.6283 22.7469 43.0281 23.1468 43.5213 23.1468C44.0146 23.1468 44.4144 22.7469 44.4144 22.2537Z" fill="white"/>
</svg>
