<svg height="32" viewBox="0 0 64 64" width="32" xmlns="http://www.w3.org/2000/svg"><g id="brochure"><path d="m11 46h2v2h-2z"/><path d="m15 46h36v2h-36z"/><path d="m11 42h2v2h-2z"/><path d="m15 42h36v2h-36z"/><path d="m11 38h2v2h-2z"/><path d="m15 38h36v2h-36z"/><path d="m11 50h2v2h-2z"/><path d="m15 50h36v2h-36z"/><path d="m38 9a4 4 0 1 0 4 4 4 4 0 0 0 -4-4zm0 6a2 2 0 1 1 2-2 2 2 0 0 1 -2 2z"/><path d="m37 6h2v2h-2z"/><path d="m32.757 7.757h2v2h-2z" transform="matrix(.707 -.707 .707 .707 3.695 26.435)"/><path d="m31 12h2v2h-2z"/><path d="m32.757 16.243h2v2h-2z" transform="matrix(.707 -.707 .707 .707 -2.305 28.92)"/><path d="m37 18h2v2h-2z"/><path d="m41.243 16.243h2v2h-2z" transform="matrix(.707 -.707 .707 .707 .18 34.92)"/><path d="m43 12h2v2h-2z"/><path d="m41.243 7.757h2v2h-2z" transform="matrix(.707 -.707 .707 .707 6.18 32.435)"/><path d="m55 2h-43a5.006 5.006 0 0 0 -5 5v47h-4a1 1 0 0 0 -1 1 7.008 7.008 0 0 0 7 7h45a1 1 0 0 0 1-1v-51h6a1 1 0 0 0 1-1 7.008 7.008 0 0 0 -7-7zm-39.9 14.271 2.341 1.561a1 1 0 0 0 1.11 0l2.449-1.632 2.445 1.63a1 1 0 0 0 1.11 0l2.139-1.426 9.075 17.596h-26.769v-6.741zm.975-1.754 2.513-4.517h4.8l2.381 4.617-1.769 1.183-2.445-1.63a1 1 0 0 0 -1.11 0l-2.445 1.63zm22.566 15.921 2.912 1.462a1.007 1.007 0 0 0 1-.063l2.447-1.637 2.445 1.63a1 1 0 0 0 1 .063l3.446-1.724 1.109 1.552v2.279h-14.98l-.71-1.376zm1.044-1.714 2.877-4.724h4.923l3.231 4.524-2.644 1.322-2.517-1.678a1 1 0 0 0 -1.11 0l-2.517 1.678zm-30.685 31.276a5.008 5.008 0 0 1 -4.9-4h39.208a9.783 9.783 0 0 0 3.671 4zm35.957-5.289a1 1 0 0 0 -.957-.711h-35v-18h44v24c-2.9 0-7.182-2.44-8.043-5.289zm8.043-26.432-4.186-5.86a1 1 0 0 0 -.814-.419h-6a1 1 0 0 0 -.854.48l-4.91 8.062-11.347-22a1 1 0 0 0 -.889-.542h-6a1 1 0 0 0 -.874.514l-8.126 14.627v-16.141a3 3 0 0 1 3-3h41zm2-20.279v-4a5.008 5.008 0 0 1 4.9 4z"/></g></svg>
