<svg id="Capa_1" enable-background="new 0 0 32 32" height="32" viewBox="0 0 512 512" width="32" xmlns="http://www.w3.org/2000/svg"><g><path d="m136 265.002c-39.149 0-71 31.851-71 71s31.851 71 71 71 71-31.851 71-71-31.851-71-71-71zm0 112c-22.607 0-41-18.393-41-41s18.393-41 41-41 41 18.393 41 41-18.393 41-41 41z"/><path d="m432 281.002h-160c-8.284 0-15 6.716-15 15s6.716 15 15 15h160c8.284 0 15-6.716 15-15s-6.716-15-15-15z"/><path d="m432 361.002h-160c-8.284 0-15 6.716-15 15s6.716 15 15 15h160c8.284 0 15-6.716 15-15s-6.716-15-15-15z"/><path d="m452 105.002h-9.744l-205.845-63.337c-7.916-2.436-16.312 2.008-18.748 9.926s2.008 16.312 9.926 18.748l112.655 34.663h-280.244c-33.084 0-60 26.916-60 60v246c0 33.084 26.916 60 60 60h392c33.084 0 60-26.916 60-60 0-7.806 0-242.525 0-246 0-33.084-26.916-60-60-60zm-422 60c0-16.542 13.458-30 30-30h392c16.542 0 30 13.458 30 30v36h-331v-17c0-8.284-6.716-15-15-15s-15 6.716-15 15v17h-91zm422 276h-392c-16.542 0-30-13.458-30-30v-180h452v180c0 16.542-13.458 30-30 30z"/></g></svg>
