<svg width="61" height="61" viewBox="0 0 61 61" fill="none" xmlns="http://www.w3.org/2000/svg">
<path d="M43.1961 20.559L42.5434 18.4108C41.7143 15.9706 39.064 14.6645 36.6238 15.4936C35.251 15.96 34.173 17.0381 33.7066 18.4108L33.0539 20.559C32.5046 22.3707 32.3894 24.2863 32.7174 26.1507C33.0165 27.7204 34.0131 29.069 35.4258 29.8158L34.6948 46.1567C34.5969 47.0687 34.8928 47.9793 35.5081 48.6597C36.8314 50.1072 39.0777 50.2078 40.5252 48.8845C40.6035 48.813 40.6785 48.738 40.75 48.6597C41.3517 47.9986 41.647 47.1147 41.5634 46.2248L40.8283 29.8137C42.2391 29.0666 43.234 27.7189 43.5327 26.1507C43.8607 24.2863 43.7454 22.3707 43.1961 20.559ZM41.5298 25.7969C41.3097 26.9246 40.506 27.8499 39.4202 28.2257C39.0081 28.3806 38.7426 28.7832 38.7625 29.2231L39.5351 46.3854C39.5707 46.7221 39.4596 47.0577 39.2301 47.3065C38.618 47.9126 37.632 47.9126 37.0199 47.3065C36.7789 47.0376 36.6695 46.6757 36.721 46.3183L37.4876 29.2231C37.5074 28.7832 37.2419 28.3806 36.8298 28.2257C35.744 27.8499 34.9403 26.9246 34.7202 25.7969C34.4482 24.249 34.5441 22.6588 34.9998 21.1548L35.6525 19.0056C36.1575 17.6401 37.6739 16.9425 39.0395 17.4475C39.7615 17.7145 40.3305 18.2837 40.5975 19.0056L41.2502 21.1548C41.7055 22.659 41.8013 24.249 41.5298 25.7969Z" fill="white"/>
<path d="M27.45 15.25C26.8885 15.25 26.4333 15.7052 26.4333 16.2667V24.9958L23.6812 27.7479C23.4776 27.9507 23.3694 28.2304 23.3833 28.5175L24.2729 46.3092C24.2941 46.6928 24.1549 47.0681 23.8886 47.3452C23.3321 47.9066 22.4258 47.9107 21.8642 47.354C21.8611 47.3511 21.8582 47.3481 21.8553 47.3452C21.5889 47.0681 21.4498 46.6928 21.471 46.3092L22.3667 28.5175C22.3809 28.2305 22.273 27.951 22.0698 27.7479L19.3167 24.9958V16.2667C19.3167 15.7052 18.8615 15.25 18.3 15.25C17.7385 15.25 17.2833 15.7052 17.2833 16.2667V25.4167C17.2833 25.6863 17.3906 25.9448 17.5812 26.1355L20.312 28.8672L19.4448 46.2106C19.3525 48.105 20.8135 49.7156 22.7079 49.8079C24.6023 49.9002 26.213 48.4392 26.3052 46.5448C26.3107 46.4335 26.3107 46.322 26.3052 46.2107L25.438 28.8674L28.1688 26.1356C28.3594 25.945 28.4667 25.6865 28.4667 25.4168V16.2668C28.4667 15.7052 28.0115 15.25 27.45 15.25Z" fill="white"/>
<path d="M21.35 15.25C20.7885 15.25 20.3333 15.7052 20.3333 16.2667V24.4C20.3333 24.9615 20.7885 25.4167 21.35 25.4167C21.9114 25.4167 22.3667 24.9615 22.3667 24.4V16.2667C22.3667 15.7052 21.9114 15.25 21.35 15.25Z" fill="white"/>
<path d="M24.4 15.25C23.8385 15.25 23.3833 15.7052 23.3833 16.2667V24.4C23.3833 24.9615 23.8385 25.4167 24.4 25.4167C24.9615 25.4167 25.4167 24.9615 25.4167 24.4V16.2667C25.4167 15.7052 24.9615 15.25 24.4 15.25Z" fill="white"/>
<path d="M30.5 0C13.6554 0 0 13.6554 0 30.5C0 47.3446 13.6554 61 30.5 61C47.3446 61 61 47.3446 61 30.5C60.9809 13.6632 47.3368 0.0190625 30.5 0ZM30.5 58.9667C14.7783 58.9667 2.03333 46.2217 2.03333 30.5C2.03333 14.7783 14.7783 2.03333 30.5 2.03333C46.2217 2.03333 58.9667 14.7783 58.9667 30.5C58.9487 46.2142 46.2142 58.9487 30.5 58.9667Z" fill="white"/>
<path d="M33.8002 49.5844C33.7457 49.0256 33.2484 48.6167 32.6895 48.6713C32.6764 48.6725 32.6633 48.6741 32.6503 48.6758L32.6543 48.6748C31.223 48.841 29.777 48.841 28.3457 48.6748C27.7878 48.6094 27.2826 49.0085 27.2172 49.5664C27.1517 50.1243 27.5509 50.6295 28.1088 50.6949C29.6962 50.8803 31.2997 50.8803 32.8871 50.6949C33.4459 50.6405 33.8547 50.1433 33.8002 49.5844Z" fill="white"/>
<path d="M46.055 17.3992C45.6942 16.9691 45.0529 16.9128 44.6228 17.2737C44.6214 17.2748 44.62 17.2761 44.6185 17.2772C44.1893 17.6392 44.1346 18.2804 44.4964 18.7097C50.6263 25.9865 50.1574 36.7465 43.4178 43.4625C43.02 43.8589 43.0189 44.5028 43.4152 44.9006C43.8116 45.2983 44.4555 45.2995 44.8533 44.9031C52.3432 37.4417 52.8655 25.4854 46.055 17.3992Z" fill="white"/>
<path d="M23.6884 13.4383C23.6876 13.4383 23.6868 13.4382 23.6861 13.4382C23.6848 13.4382 23.6836 13.4383 23.6822 13.4383H23.6884Z" fill="white"/>
<path d="M35.2956 10.735C31.3224 9.78274 27.1553 10.0387 23.3284 11.47C22.8028 11.6676 22.5371 12.254 22.7347 12.7795C22.8836 13.1756 23.2623 13.4378 23.6854 13.4382C23.807 13.4375 23.9275 13.4153 24.0411 13.3722C27.4874 12.0835 31.2399 11.8533 34.8178 12.7114C35.3636 12.8433 35.913 12.5079 36.0449 11.9621C36.1768 11.4163 35.8414 10.8669 35.2956 10.735Z" fill="white"/>
<path d="M17.5365 43.4117C14.1092 39.9902 12.1883 35.3429 12.2 30.5C12.1899 26.6308 13.4155 22.8595 15.6983 19.7355C16.0357 19.2867 15.9454 18.6494 15.4965 18.3119C15.0477 17.9745 14.4103 18.0649 14.0729 18.5138C14.067 18.5218 14.0611 18.5298 14.0554 18.5379C8.17742 26.6189 9.04235 37.7731 16.0959 44.8513C16.4934 45.249 17.1382 45.2493 17.536 44.8518C17.9337 44.4543 17.934 43.8094 17.5365 43.4117Z" fill="white"/>
</svg>
