<svg width="61" height="61" viewBox="0 0 61 61" fill="none" xmlns="http://www.w3.org/2000/svg">
<path d="M58.8146 31.7323L56.9561 29.8738C55.4171 28.3324 53.4688 27.2641 51.3418 26.7952C51.0936 26.1903 50.8047 25.603 50.4772 25.0372C50.3412 23.7786 49.8501 22.5847 49.0614 21.5945C49.478 20.5814 49.6386 19.4812 49.529 18.3913C49.4194 17.3013 49.043 16.2551 48.433 15.3453C47.8229 14.4354 46.9981 13.6898 46.0315 13.1745C45.0648 12.6592 43.9861 12.3899 42.8906 12.3906C41.8608 12.3915 40.8455 12.6325 39.9252 13.0946C40.0984 10.261 39.2136 7.46404 37.4422 5.24568L35.0568 2.26396C34.9675 2.15234 34.8542 2.06224 34.7254 2.00032C34.5966 1.9384 34.4554 1.90625 34.3125 1.90625C34.1696 1.90625 34.0284 1.9384 33.8996 2.00032C33.7708 2.06224 33.6575 2.15234 33.5682 2.26396L31.1828 5.24568C30.3792 6.24853 29.7496 7.37922 29.3203 8.59057C28.5918 8.5614 27.862 8.58668 27.1372 8.66623C25.6388 7.97799 24.009 7.62276 22.36 7.625H20.0156C19.7628 7.625 19.5204 7.72542 19.3417 7.90417C19.1629 8.08291 19.0625 8.32534 19.0625 8.57813V11.2065C19.0625 11.5568 19.0789 11.9051 19.1116 12.2515C16.8922 14.2401 15.339 16.864 14.6631 19.7663L14.718 19.7789C14.05 20.6501 13.6079 21.673 13.4309 22.7564C13.2539 23.8398 13.3475 24.9502 13.7034 25.9887L10.6175 41.9476C10.3843 41.9141 10.147 41.9684 9.95157 42.0999C9.75614 42.2314 9.61651 42.4308 9.55976 42.6594L8.73345 45.9644L6.37042 46.7521C6.21629 46.8034 6.07786 46.8934 5.96827 47.0133C5.85868 47.1332 5.78155 47.2792 5.74423 47.4373C5.7069 47.5954 5.71061 47.7604 5.755 47.9167C5.79939 48.073 5.88299 48.2153 5.99786 48.3302L6.33364 48.666L4.71245 49.4766C3.99299 49.8363 3.36931 50.3619 2.89281 51.01C2.41632 51.658 2.10064 52.4101 1.97181 53.2041C1.84297 53.9981 1.90465 54.8113 2.15178 55.5768C2.39891 56.3423 2.8244 57.0381 3.39319 57.6069C3.96199 58.1757 4.6578 58.6012 5.42329 58.8483C6.18879 59.0954 7.00204 59.1571 7.79605 59.0282C8.59005 58.8993 9.34207 58.5837 9.99013 58.1072C10.6382 57.6306 11.1637 57.007 11.5235 56.2875L12.334 54.6663L12.6697 55.0021C12.7846 55.117 12.927 55.2006 13.0833 55.245C13.2396 55.2894 13.4046 55.2931 13.5627 55.2558C13.7209 55.2184 13.8668 55.1413 13.9868 55.0317C14.1067 54.9221 14.1966 54.7837 14.248 54.6295L15.0357 52.2665L18.3406 51.4403C18.5692 51.3835 18.7685 51.2438 18.9001 51.0484C19.0316 50.853 19.0859 50.6157 19.0525 50.3825L38.087 46.7019C39.9841 46.6931 41.8605 46.3079 43.6076 45.5686L43.6012 45.5536C44.9994 46.3835 46.5586 46.9056 48.1746 47.085L51.9696 47.5067C52.1117 47.5225 52.2555 47.5062 52.3904 47.4589C52.5253 47.4116 52.6478 47.3345 52.7489 47.2334C52.85 47.1324 52.927 47.0098 52.9743 46.875C53.0217 46.7401 53.038 46.5963 53.0222 46.4542L52.6006 42.6591C52.4158 40.9805 51.8603 39.3639 50.9741 37.9263C51.0142 37.9196 51.0543 37.9147 51.0943 37.9075C53.3925 37.4979 55.509 36.3914 57.1569 34.738L58.8146 33.0802C58.9934 32.9015 59.0938 32.659 59.0938 32.4063C59.0938 32.1535 58.9934 31.911 58.8146 31.7323ZM35.287 18.1897C34.4816 19.0037 33.8995 20.0114 33.5967 21.1157C33.2939 22.22 33.2806 23.3837 33.5581 24.4946C33.8356 25.6055 34.3945 26.6263 35.181 27.4585C35.9675 28.2907 36.9551 28.9064 38.0486 29.2461C37.459 29.445 36.841 29.5466 36.2188 29.5469C36.0775 29.5469 35.9356 29.5399 35.7945 29.5296C34.9767 29.0427 34.0639 28.7372 33.1178 28.6338C32.8827 28.4817 32.6591 28.3125 32.4487 28.1277C33.1583 26.9171 33.4657 25.5127 33.3268 24.1164C33.1878 22.7201 32.6097 21.4038 31.6754 20.3568C32.562 19.2038 33.8524 18.4295 35.287 18.1897ZM37.1719 40.9844C36.8469 40.9844 36.5243 40.929 36.218 40.8207C36.6869 40.6554 37.1046 40.3705 37.4297 39.9943C37.7548 39.6181 37.9761 39.1635 38.0717 38.6755C38.1673 38.1876 38.1339 37.6831 37.9747 37.2121C37.8156 36.741 37.5363 36.3196 37.1644 35.9896C37.1501 35.7462 37.1125 35.5047 37.052 35.2685C37.0918 35.2669 37.1317 35.2656 37.1719 35.2656C37.9302 35.2656 38.6575 35.5669 39.1938 36.1031C39.73 36.6394 40.0313 37.3666 40.0313 38.125C40.0313 38.8834 39.73 39.6106 39.1938 40.1469C38.6575 40.6831 37.9302 40.9844 37.1719 40.9844ZM18.1094 27.6406C18.1094 27.5308 18.1141 27.4216 18.1214 27.3129C18.7114 27.978 19.5154 28.4157 20.3942 28.5504C20.8351 29.5898 21.631 30.4388 22.6398 30.9458C23.6486 31.4529 24.8047 31.5851 25.9019 31.3188C25.2048 31.8933 24.3587 32.2577 23.4624 32.3696C22.566 32.4815 21.6563 32.3361 20.8394 31.9505C20.0225 31.5649 19.3321 30.955 18.8487 30.1919C18.3653 29.4288 18.1089 28.544 18.1094 27.6406ZM24.7813 23.8281C25.1977 23.8282 25.6091 23.9192 25.9867 24.0948C26.3643 24.2704 26.699 24.5263 26.9674 24.8447C27.2357 25.1632 27.4313 25.5364 27.5404 25.9382C27.6496 26.3401 27.6696 26.761 27.5991 27.1714C27.5286 27.5818 27.3694 27.9719 27.1324 28.3144C26.8955 28.6568 26.5866 28.9434 26.2274 29.1541C25.8682 29.3647 25.4673 29.4944 25.0527 29.5339C24.6382 29.5735 24.22 29.5221 23.8274 29.3832C24.2963 29.2179 24.714 28.933 25.0391 28.5568C25.3642 28.1806 25.5855 27.726 25.6811 27.238C25.7767 26.7501 25.7433 26.2456 25.5841 25.7746C25.425 25.3035 25.1457 24.8821 24.7737 24.552C24.7595 24.3087 24.7219 24.0672 24.6614 23.831C24.7012 23.8294 24.7411 23.8281 24.7813 23.8281ZM22.875 25.7344C23.0635 25.7344 23.2478 25.7903 23.4045 25.895C23.5613 25.9997 23.6834 26.1486 23.7556 26.3228C23.8277 26.4969 23.8466 26.6886 23.8098 26.8734C23.773 27.0583 23.6823 27.2282 23.549 27.3615C23.4157 27.4948 23.2458 27.5855 23.0609 27.6223C22.8761 27.6591 22.6844 27.6402 22.5103 27.5681C22.3361 27.4959 22.1872 27.3738 22.0825 27.217C21.9778 27.0603 21.9219 26.876 21.9219 26.6875C21.9222 26.4348 22.0227 26.1925 22.2014 26.0139C22.38 25.8352 22.6223 25.7347 22.875 25.7344ZM20.0273 26.4367C19.7721 26.2919 19.5538 26.0901 19.3895 25.8471C19.2251 25.604 19.1191 25.3263 19.0797 25.0356C19.0404 24.7449 19.0687 24.449 19.1625 24.171C19.2562 23.893 19.413 23.6404 19.6204 23.4329C19.8279 23.2255 20.0805 23.0687 20.3585 22.975C20.6365 22.8812 20.9324 22.8529 21.2231 22.8922C21.5138 22.9316 21.7915 23.0376 22.0346 23.202C22.2776 23.3663 22.4794 23.5846 22.6242 23.8398C21.9555 23.8996 21.3292 24.1924 20.8545 24.667C20.3799 25.1417 20.0871 25.768 20.0273 26.4367ZM29.6086 35.5401C29.1021 36.3478 28.7759 37.2553 28.6522 38.2006C28.235 37.6672 27.9362 37.0511 27.7759 36.3932C27.6156 35.7353 27.5973 35.0507 27.7223 34.3852C27.8473 33.7197 28.1127 33.0885 28.5009 32.5336C28.889 31.9788 29.391 31.513 29.9733 31.1674C30.5556 30.8218 31.2049 30.6042 31.8779 30.5293C32.5509 30.4543 33.2321 30.5237 33.8762 30.7327C34.5203 30.9417 35.1124 31.2856 35.6131 31.7415C36.1138 32.1974 36.5116 32.7547 36.78 33.3764C36.526 33.3966 36.274 33.4373 36.0266 33.4981C35.5324 33.0126 34.9152 32.6711 34.2413 32.5103C33.5675 32.3495 32.8625 32.3755 32.2024 32.5855C31.5422 32.7956 30.9519 33.1817 30.4948 33.7023C30.0378 34.2229 29.7314 34.8583 29.6086 35.5401H29.6086ZM35.2656 39.0781C35.0771 39.0781 34.8928 39.0222 34.7361 38.9175C34.5794 38.8128 34.4572 38.6639 34.3851 38.4897C34.3129 38.3156 34.294 38.1239 34.3308 37.9391C34.3676 37.7542 34.4584 37.5843 34.5917 37.451C34.725 37.3177 34.8948 37.227 35.0797 37.1902C35.2646 37.1534 35.4562 37.1723 35.6304 37.2444C35.8045 37.3166 35.9534 37.4387 36.0581 37.5955C36.1629 37.7522 36.2188 37.9365 36.2188 38.125C36.2185 38.3777 36.118 38.62 35.9393 38.7986C35.7606 38.9773 35.5183 39.0778 35.2656 39.0781ZM33.3594 34.3125C33.6959 34.3129 34.0263 34.4023 34.3171 34.5718C34.6079 34.7413 34.8486 34.9847 35.0148 35.2773C34.3462 35.3371 33.7198 35.6299 33.2452 36.1045C32.7705 36.5792 32.4777 37.2055 32.4179 37.8742C32.052 37.6665 31.7652 37.3437 31.6021 36.9559C31.439 36.5681 31.4089 36.1373 31.5164 35.7306C31.6239 35.3239 31.863 34.9642 32.1964 34.7077C32.5298 34.4512 32.9387 34.3122 33.3594 34.3125ZM40.0313 27.6406C39.1279 27.6411 38.2431 27.3847 37.48 26.9013C36.7169 26.4179 36.1069 25.7275 35.7214 24.9106C35.3358 24.0937 35.1904 23.184 35.3023 22.2876C35.4141 21.3913 35.7786 20.5452 36.3531 19.8481C36.0868 20.9453 36.219 22.1014 36.7261 23.1102C37.2331 24.119 38.0821 24.9148 39.1215 25.3557C39.2561 26.2345 39.6939 27.0386 40.359 27.6286C40.2502 27.6359 40.1411 27.6406 40.0313 27.6406ZM40.9844 23.8281C40.7959 23.8281 40.6116 23.7722 40.4549 23.6675C40.2981 23.5628 40.1759 23.4139 40.1038 23.2397C40.0317 23.0656 40.0128 22.8739 40.0496 22.6891C40.0863 22.5042 40.1771 22.3343 40.3104 22.201C40.4437 22.0677 40.6135 21.977 40.7984 21.9402C40.9833 21.9034 41.175 21.9223 41.3491 21.9944C41.5233 22.0666 41.6721 22.1887 41.7769 22.3455C41.8816 22.5022 41.9375 22.6865 41.9375 22.875C41.9372 23.1277 41.8367 23.37 41.658 23.5486C41.4793 23.7273 41.2371 23.8278 40.9844 23.8281ZM42.8906 26.6875C42.5541 26.6871 42.2237 26.5977 41.9329 26.4282C41.6421 26.2587 41.4014 26.0153 41.2352 25.7227C41.9038 25.6629 42.5302 25.3701 43.0048 24.8955C43.4795 24.4208 43.7723 23.7945 43.8321 23.1258C44.198 23.3335 44.4848 23.6563 44.6479 24.0441C44.811 24.4319 44.8411 24.8627 44.7336 25.2694C44.6261 25.6761 44.387 26.0358 44.0536 26.2923C43.7202 26.5488 43.3113 26.6878 42.8906 26.6875ZM43.8409 21.0886C43.6047 21.0281 43.3632 20.9905 43.1198 20.9763C42.7898 20.6044 42.3684 20.325 41.8973 20.1659C41.4263 20.0068 40.9218 19.9733 40.4338 20.0689C39.9459 20.1645 39.4913 20.3858 39.1151 20.7109C38.7389 21.036 38.454 21.4537 38.2887 21.9226C38.1498 21.53 38.0983 21.1118 38.1378 20.6972C38.1774 20.2827 38.307 19.8817 38.5177 19.5225C38.7283 19.1632 39.0149 18.8543 39.3574 18.6173C39.6999 18.3804 40.09 18.2211 40.5004 18.1506C40.9109 18.0801 41.3318 18.1002 41.7337 18.2093C42.1356 18.3184 42.5088 18.514 42.8272 18.7825C43.1456 19.0509 43.4016 19.3856 43.5772 19.7632C43.7528 20.1409 43.8437 20.5523 43.8438 20.9688C43.8438 21.0089 43.8425 21.0488 43.8409 21.0886ZM31.4531 24.7813C31.4503 25.5358 31.2693 26.279 30.9249 26.9504C30.5805 27.6218 30.0824 28.2023 29.4712 28.6448C29.5216 28.3125 29.5469 27.9768 29.5469 27.6406C29.5469 27.4692 29.5388 27.2972 29.5258 27.1269C29.5391 26.9821 29.5469 26.8357 29.5469 26.6875C29.5457 25.7256 29.2539 24.7866 28.7097 23.9935C28.1655 23.2003 27.3944 22.5901 26.4974 22.2429C26.3136 21.4962 26.0005 20.7875 25.5724 20.1487C26.2731 19.9795 27.003 19.9716 27.7072 20.1254C28.4113 20.2793 29.0714 20.591 29.6376 21.0371C30.2038 21.4831 30.6614 22.0518 30.9759 22.7004C31.2904 23.349 31.4536 24.0605 31.4531 24.7813ZM24.3894 21.9389C24.1354 21.9591 23.8834 21.9998 23.6359 22.0606C23.1418 21.5751 22.5245 21.2336 21.8507 21.0728C21.1768 20.912 20.4719 20.938 19.8118 21.148C19.1516 21.3581 18.5612 21.7442 18.1042 22.2648C17.6472 22.7854 17.3408 23.4208 17.218 24.1026C16.7115 24.9103 16.3852 25.8178 16.2615 26.7631C15.8443 26.2297 15.5456 25.6136 15.3853 24.9557C15.2249 24.2978 15.2067 23.6132 15.3317 22.9477C15.4567 22.2822 15.7221 21.651 16.1103 21.0961C16.4984 20.5413 17.0004 20.0755 17.5827 19.7299C18.165 19.3843 18.8143 19.1667 19.4873 19.0918C20.1602 19.0168 20.8415 19.0862 21.4856 19.2952C22.1296 19.5042 22.7218 19.8481 23.2225 20.304C23.7232 20.7599 24.121 21.3172 24.3894 21.9389H24.3894ZM22.875 34.3125C23.9488 34.3133 25.0067 34.0533 25.9577 33.5547C25.7309 34.4089 25.6762 35.2997 25.7966 36.1752C25.917 37.0508 26.2102 37.8937 26.6592 38.6549L22.2895 34.2853C22.4826 34.3022 22.6776 34.3125 22.875 34.3125ZM27.7843 42.476C29.2251 43.9219 30.957 45.0448 32.8649 45.7701L17.6532 48.7115L14.2151 45.2734L22.3984 37.0901L27.7843 42.476ZM35.2656 43.8438C34.0021 43.8423 32.7908 43.3398 31.8974 42.4463C31.004 41.5529 30.5014 40.3416 30.5 39.0781C30.5 38.9683 30.5047 38.8591 30.5121 38.7504C31.102 39.4155 31.9061 39.8532 32.7848 39.9879C33.2258 41.0273 34.0216 41.8763 35.0304 42.3833C36.0392 42.8904 37.1953 43.0226 38.2925 42.7563C37.441 43.4602 36.3705 43.8448 35.2656 43.8438ZM41.9164 38.5644C41.9298 38.4196 41.9375 38.2732 41.9375 38.125C41.9363 37.1631 41.6445 36.2241 41.1003 35.431C40.5561 34.6378 39.785 34.0276 38.888 33.6804C38.7042 32.9337 38.3911 32.225 37.963 31.5862C39.0366 31.3269 40.1668 31.4488 41.1604 31.931C42.154 32.4131 42.9491 33.2256 43.4098 34.2294C43.8704 35.2331 43.9678 36.3658 43.6855 37.4335C43.4031 38.5011 42.7584 39.4375 41.8618 40.0823C41.9122 39.75 41.9375 39.4143 41.9375 39.0781C41.9375 38.9067 41.9294 38.7347 41.9164 38.5644ZM43.8438 30.5C42.7799 30.5001 41.7467 30.144 40.9088 29.4885C41.8541 29.3648 42.7616 29.0386 43.5693 28.5321C44.2511 28.4093 44.8865 28.1029 45.4071 27.6458C45.9277 27.1888 46.3138 26.5984 46.5238 25.9382C46.7339 25.2781 46.7599 24.5731 46.5991 23.8993C46.4383 23.2254 46.0968 22.6082 45.6113 22.114C45.6721 21.8666 45.7127 21.6146 45.7329 21.3606C46.7395 21.7951 47.5655 22.5635 48.0715 23.5361C48.5775 24.5087 48.7327 25.6261 48.5107 26.6998C48.2888 27.7734 47.7034 28.7377 46.8532 29.43C46.003 30.1223 44.9401 30.5002 43.8438 30.5ZM47.6563 19.0625C47.6558 19.4381 47.6111 19.8124 47.5232 20.1776C46.8844 19.7495 46.1757 19.4364 45.429 19.2526C45.0818 18.3556 44.4716 17.5845 43.6784 17.0403C42.8853 16.4961 41.9462 16.2043 40.9844 16.2031C40.8361 16.2031 40.6896 16.2109 40.5447 16.2242C40.3741 16.2112 40.2021 16.2031 40.0313 16.2031C39.6951 16.2031 39.3594 16.2284 39.0271 16.2788C39.6156 15.4605 40.4486 14.8499 41.4061 14.5351C42.3637 14.2203 43.3965 14.2174 44.3558 14.5269C45.3151 14.8363 46.1515 15.4422 46.7446 16.2572C47.3377 17.0723 47.6569 18.0545 47.6563 19.0625ZM32.6714 6.4365L34.3125 4.38511L35.9536 6.4365C36.8862 7.6045 37.5316 8.97513 37.8379 10.4381C38.1441 11.901 38.1026 13.4155 37.7168 14.8595C37.3734 15.2795 37.0827 15.7399 36.8511 16.2306C36.6409 16.2133 36.4298 16.2031 36.2188 16.2031C35.9001 16.2034 35.5817 16.2238 35.2656 16.2642V9.53125H33.3594V16.7641C32.8985 16.9513 32.4569 17.1827 32.0407 17.4552C30.9852 15.7816 30.4787 13.8203 30.5917 11.8449C30.7048 9.8695 31.4319 7.97872 32.6714 6.4365ZM20.9688 9.53125H22.36C24.689 9.52728 26.9381 10.3805 28.6784 11.9281C28.6114 13.5795 28.9046 15.2257 29.5379 16.7524L25.2719 12.4864L23.9239 13.8343L28.4318 18.3422C27.0981 17.9797 25.6846 18.0417 24.3879 18.5198C23.3204 17.6228 22.4614 16.5038 21.8708 15.2407C21.2803 13.9776 20.9725 12.6009 20.9688 11.2065V9.53125ZM19.5494 14.4919C19.8368 15.4435 20.2459 16.354 20.7664 17.2009C19.6162 17.0663 18.4509 17.2372 17.3878 17.6965C17.94 16.5239 18.6691 15.4431 19.5494 14.4919ZM15.4729 28.7143C16.1938 30.3954 17.2294 31.9233 18.5239 33.2157L21.0505 35.7422L12.8672 43.9255L12.2885 43.3468L15.1749 28.4194C15.2709 28.5206 15.3702 28.6189 15.4729 28.7143ZM5.56506 51.1815L7.75451 50.0868L7.78717 50.1195L4.26707 55.6511C4.04146 55.2766 3.89577 54.8596 3.83917 54.4261C3.78257 53.9926 3.81629 53.5521 3.9382 53.1323C4.06012 52.7125 4.26759 52.3225 4.54757 51.9868C4.82755 51.651 5.17398 51.3769 5.56506 51.1815ZM9.81852 55.4349C9.45575 56.1613 8.82798 56.7206 8.06477 56.9975C7.30157 57.2744 6.46118 57.2478 5.71706 56.923L9.16792 51.5003L10.9132 53.2455L9.81852 55.4349ZM14.0657 50.5441C13.9101 50.583 13.7669 50.6605 13.6493 50.7694C13.5316 50.8784 13.4433 51.0152 13.3926 51.1674L12.9272 52.5636L8.4363 48.0728L9.83271 47.6073C9.98481 47.5566 10.1217 47.4684 10.2306 47.3507C10.3395 47.2331 10.417 47.0899 10.4559 46.9343L11.0007 44.7549L16.2451 49.9993L14.0657 50.5441ZM38.7357 44.7743C39.4777 44.3201 40.1245 43.7261 40.6402 43.0255C40.9913 43.4481 41.3724 43.8449 41.7806 44.2128C40.793 44.5262 39.7701 44.7148 38.7357 44.7743ZM48.3852 45.1904C46.043 44.9302 43.8804 43.8113 42.315 42.0499C43.1277 41.594 43.8368 40.9742 44.3974 40.2298L46.6832 42.5156L48.0312 41.1677L45.3481 38.4846C45.4585 38.1814 45.5467 37.8705 45.6118 37.5545C46.6335 37.8797 47.696 38.0587 48.7678 38.0859C49.8434 39.4708 50.5142 41.1266 50.706 42.8696L50.996 45.4805L48.3852 45.1904ZM55.8089 33.3901C54.5104 34.6787 52.8704 35.5689 51.0824 35.9557C49.2944 36.3424 47.4331 36.2096 45.7182 35.5728C45.6443 34.8049 45.4368 34.0558 45.1049 33.3594H51.4688V31.4531H47.2762C48.4351 30.7542 49.3557 29.7215 49.9174 28.4903C52.0702 28.7255 54.078 29.6892 55.6081 31.2217L56.7927 32.4063L55.8089 33.3901Z" fill="white"/>
</svg>
