<svg width="61" height="61" viewBox="0 0 61 61" fill="none" xmlns="http://www.w3.org/2000/svg">
<g clip-path="url(#clip0)">
<path d="M56.3535 27.5211C57.0536 27.5578 60.2908 27.5944 61 27.6403L55.519 8.80381H55.4212C56.3627 8.39419 57.0108 7.59328 57.0108 6.65788V5.23643C57.0108 3.89141 55.6749 2.79704 54.0303 2.79704H6.87492C5.23032 2.79704 3.89752 3.88835 3.89752 5.23643V6.65788C3.89752 7.59328 4.54252 8.39113 5.48404 8.80381H5.38622L0 28.0041C0.0305688 27.9979 3.24029 27.894 4.54558 27.7442V53.9386H2.25598V58.206H58.5514V53.9386H56.3566L56.3535 27.5211ZM40.3875 11.2432L41.4024 25.6594C38.8346 25.5861 36.4166 25.5372 34.1178 25.5066L33.8091 11.2432C33.8091 10.3078 34.4571 9.50689 35.3986 9.09727H38.7979C39.7425 9.50689 40.3875 10.3108 40.3875 11.2432ZM27.9674 11.2432L27.6617 25.4699C25.0144 25.4791 22.5934 25.5158 20.3802 25.5708L21.389 11.2432C21.389 10.3078 22.037 9.50689 22.9786 9.09727H26.3839C27.3224 9.50689 27.9674 10.3108 27.9674 11.2432ZM9.10644 11.2432C9.10644 10.3108 9.7545 9.50689 10.696 9.09727H14.0983C15.0368 9.50689 15.6848 10.3108 15.6848 11.2432L14.0402 25.797C10.9559 25.9468 8.51646 26.1302 6.67317 26.2983L9.10644 11.2432ZM34.8606 42.8024H9.54052V31.064H34.8606V42.8024ZM51.111 51.3036H41.277V31.064H51.111V51.3036ZM47.7454 25.8795L46.0947 11.2432C46.0947 10.3078 46.7427 9.50689 47.6812 9.09727H51.0865C52.0219 9.50689 52.67 10.3108 52.67 11.2432L55.0941 26.225C52.5416 26.0905 50.0931 25.9773 47.7454 25.8795Z" fill="white"/>
</g>
<defs>
<clipPath id="clip0">
<rect width="61" height="61" fill="white"/>
</clipPath>
</defs>
</svg>
